<?xml version="1.0" encoding="utf-8"?>
<!-- Generator: Adobe Illustrator 24.0.1, SVG Export Plug-In . SVG Version: 6.00 Build 0)  -->
<svg version="1.1" xmlns="http://www.w3.org/2000/svg" xmlns:xlink="http://www.w3.org/1999/xlink" x="0px" y="0px"
	 viewBox="0 0 500 500" style="enable-background:new 0 0 500 500;" xml:space="preserve">
<style type="text/css">
	.st0{fill:none;}
	.st1{fill:#1C3F47;}
	.st2{fill:#BEE1F4;}
	.st3{fill:#D5ECF7;}
	.st4{fill:#A4C8D8;}
	.st5{fill:#00A27A;}
	.st6{fill:#22B573;}
	.st7{fill:#58595B;}
	.st8{fill:#6D6D6D;}
	.st9{fill:#E9E5D9;}
	.st10{fill:#E0DBCE;}
	.st11{fill:#DFDDCE;}
	.st12{fill:#845E40;}
	.st13{fill:#25BCAF;}
	.st14{fill:url(#SVGID_1_);}
	.st15{fill:url(#SVGID_2_);}
	.st16{fill:url(#SVGID_3_);}
	.st17{fill:url(#SVGID_4_);}
	.st18{fill:url(#SVGID_5_);}
	.st19{fill:url(#SVGID_6_);}
	.st20{fill:url(#SVGID_7_);}
	.st21{fill:url(#SVGID_8_);}
	.st22{fill:url(#SVGID_9_);}
	.st23{fill:url(#SVGID_10_);}
	.st24{fill:url(#SVGID_11_);}
	.st25{fill:url(#SVGID_12_);}
	.st26{opacity:0.3;}
	.st27{opacity:0.5;}
	.st28{opacity:0.8;}
	.st29{fill:url(#SVGID_13_);}
	.st30{fill:url(#SVGID_14_);}
	.st31{fill:url(#SVGID_15_);}
	.st32{fill:url(#SVGID_16_);}
	.st33{fill:url(#SVGID_17_);}
	.st34{fill:url(#SVGID_18_);}
	.st35{opacity:0.2;}
	.st36{fill:#CCC5B6;}
	.st37{fill:url(#SVGID_19_);}
	.st38{fill:url(#SVGID_20_);}
	.st39{fill:url(#SVGID_21_);}
	.st40{fill:url(#SVGID_22_);}
	.st41{fill:url(#SVGID_23_);}
	.st42{fill:url(#SVGID_24_);}
	.st43{fill:url(#SVGID_25_);}
	.st44{fill:url(#SVGID_26_);}
	.st45{fill:url(#SVGID_27_);}
	.st46{fill:url(#SVGID_28_);}
	.st47{fill:url(#SVGID_29_);}
	.st48{fill:url(#SVGID_30_);}
	.st49{fill:url(#SVGID_31_);}
	.st50{fill:url(#SVGID_32_);}
	.st51{fill:url(#SVGID_33_);}
	.st52{fill:url(#SVGID_34_);}
	.st53{fill:url(#SVGID_35_);}
	.st54{fill:url(#SVGID_36_);}
	.st55{fill:url(#SVGID_37_);}
	.st56{fill:url(#SVGID_38_);}
	.st57{fill:url(#SVGID_39_);}
	.st58{fill:url(#SVGID_40_);}
	.st59{fill:url(#SVGID_41_);}
	.st60{fill:url(#SVGID_42_);}
	.st61{fill:url(#SVGID_43_);}
	.st62{fill:url(#SVGID_44_);}
	.st63{fill:url(#SVGID_45_);}
	.st64{fill:url(#SVGID_46_);}
	.st65{fill:url(#SVGID_47_);}
	.st66{fill:url(#SVGID_48_);}
	.st67{fill:url(#SVGID_49_);}
	.st68{fill:url(#SVGID_50_);}
	.st69{fill:url(#SVGID_51_);}
	.st70{fill:url(#SVGID_52_);}
	.st71{fill:url(#SVGID_53_);}
	.st72{fill:url(#SVGID_54_);}
	.st73{fill:url(#SVGID_55_);}
	.st74{fill:url(#SVGID_56_);}
	.st75{fill:url(#SVGID_57_);}
	.st76{fill:url(#SVGID_58_);}
	.st77{fill:url(#SVGID_59_);}
	.st78{fill:url(#SVGID_60_);}
	.st79{fill:url(#SVGID_61_);}
	.st80{fill:url(#SVGID_62_);}
	.st81{fill:#E5E6E6;}
	.st82{fill:#808285;}
	.st83{fill:#6D4B35;}
	.st84{fill:#D8D0BC;}
	.st85{fill:#F9F8F7;}
	.st86{fill:#A7A9AC;}
	.st87{fill:#1D262D;}
</style>
<pattern  x="-1" y="-150" width="72" height="72" patternUnits="userSpaceOnUse" id="Diagonal_Lines_2" viewBox="78 -150 72 72" style="overflow:visible;">
	<g>
		<rect x="78" y="-150" class="st0" width="72" height="72"/>
		<g>
			<line class="st0" x1="144" y1="-66" x2="162" y2="-84"/>
			<line class="st0" x1="144" y1="-60" x2="168" y2="-84"/>
			<line class="st0" x1="144" y1="-54" x2="174" y2="-84"/>
			<line class="st0" x1="144" y1="-48" x2="180" y2="-84"/>
			<line class="st0" x1="144" y1="-42" x2="186" y2="-84"/>
			<line class="st0" x1="144" y1="-36" x2="192" y2="-84"/>
			<line class="st0" x1="144" y1="-30" x2="198" y2="-84"/>
			<line class="st0" x1="144" y1="-24" x2="204" y2="-84"/>
			<line class="st0" x1="144" y1="-18" x2="210" y2="-84"/>
			<line class="st0" x1="144" y1="-12" x2="216" y2="-84"/>
			<line class="st0" x1="144" y1="-6" x2="222" y2="-84"/>
			<line class="st0" x1="144" y1="0" x2="228" y2="-84"/>
		</g>
		<g>
			<line class="st0" x1="72" y1="-66" x2="90" y2="-84"/>
			<line class="st0" x1="72" y1="-60" x2="96" y2="-84"/>
			<line class="st0" x1="72" y1="-54" x2="102" y2="-84"/>
			<line class="st0" x1="72" y1="-48" x2="108" y2="-84"/>
			<line class="st0" x1="72" y1="-42" x2="114" y2="-84"/>
			<line class="st0" x1="72" y1="-36" x2="120" y2="-84"/>
			<line class="st0" x1="72" y1="-30" x2="126" y2="-84"/>
			<line class="st0" x1="72" y1="-24" x2="132" y2="-84"/>
			<line class="st0" x1="72" y1="-18" x2="138" y2="-84"/>
			<line class="st0" x1="72" y1="-12" x2="144" y2="-84"/>
			<line class="st0" x1="72" y1="-6" x2="150" y2="-84"/>
			<line class="st0" x1="72" y1="0" x2="156" y2="-84"/>
		</g>
		<g>
			<line class="st0" x1="0" y1="0" x2="84" y2="-84"/>
		</g>
		<g>
			<line class="st0" x1="144" y1="-138" x2="162" y2="-156"/>
			<line class="st0" x1="144" y1="-132" x2="168" y2="-156"/>
			<line class="st0" x1="144" y1="-126" x2="174" y2="-156"/>
			<line class="st0" x1="144" y1="-120" x2="180" y2="-156"/>
			<line class="st0" x1="144" y1="-114" x2="186" y2="-156"/>
			<line class="st0" x1="144" y1="-108" x2="192" y2="-156"/>
			<line class="st0" x1="144" y1="-102" x2="198" y2="-156"/>
			<line class="st0" x1="144" y1="-96" x2="204" y2="-156"/>
			<line class="st0" x1="144" y1="-90" x2="210" y2="-156"/>
			<line class="st0" x1="144" y1="-84" x2="216" y2="-156"/>
			<line class="st0" x1="144" y1="-78" x2="222" y2="-156"/>
			<line class="st0" x1="144" y1="-72" x2="228" y2="-156"/>
		</g>
		<g>
			<line class="st0" x1="72" y1="-138" x2="90" y2="-156"/>
			<line class="st0" x1="72" y1="-132" x2="96" y2="-156"/>
			<line class="st0" x1="72" y1="-126" x2="102" y2="-156"/>
			<line class="st0" x1="72" y1="-120" x2="108" y2="-156"/>
			<line class="st0" x1="72" y1="-114" x2="114" y2="-156"/>
			<line class="st0" x1="72" y1="-108" x2="120" y2="-156"/>
			<line class="st0" x1="72" y1="-102" x2="126" y2="-156"/>
			<line class="st0" x1="72" y1="-96" x2="132" y2="-156"/>
			<line class="st0" x1="72" y1="-90" x2="138" y2="-156"/>
			<line class="st0" x1="72" y1="-84" x2="144" y2="-156"/>
			<line class="st0" x1="72" y1="-78" x2="150" y2="-156"/>
			<line class="st0" x1="72" y1="-72" x2="156" y2="-156"/>
			<line class="st0" x1="78" y1="-72" x2="156" y2="-150"/>
			<line class="st0" x1="84" y1="-72" x2="156" y2="-144"/>
			<line class="st0" x1="90" y1="-72" x2="156" y2="-138"/>
			<line class="st0" x1="96" y1="-72" x2="156" y2="-132"/>
			<line class="st0" x1="102" y1="-72" x2="156" y2="-126"/>
			<line class="st0" x1="108" y1="-72" x2="156" y2="-120"/>
			<line class="st0" x1="114" y1="-72" x2="156" y2="-114"/>
			<line class="st0" x1="120" y1="-72" x2="156" y2="-108"/>
			<line class="st0" x1="126" y1="-72" x2="156" y2="-102"/>
			<line class="st0" x1="132" y1="-72" x2="156" y2="-96"/>
			<line class="st0" x1="138" y1="-72" x2="156" y2="-90"/>
			<line class="st0" x1="144" y1="-72" x2="156" y2="-84"/>
			<polygon class="st1" points="96,-150 114,-150 78,-114 78,-132 			"/>
			<polygon class="st1" points="132,-150 78,-96 78,-90 138,-150 			"/>
			<polygon class="st1" points="150,-132 96,-78 114,-78 150,-114 			"/>
			<polygon class="st1" points="150,-96 132,-78 138,-78 150,-90 			"/>
		</g>
		<g>
			<line class="st0" x1="0" y1="-72" x2="84" y2="-156"/>
			<line class="st0" x1="6" y1="-72" x2="84" y2="-150"/>
			<line class="st0" x1="12" y1="-72" x2="84" y2="-144"/>
			<line class="st0" x1="18" y1="-72" x2="84" y2="-138"/>
			<line class="st0" x1="24" y1="-72" x2="84" y2="-132"/>
			<line class="st0" x1="30" y1="-72" x2="84" y2="-126"/>
			<line class="st0" x1="36" y1="-72" x2="84" y2="-120"/>
			<line class="st0" x1="42" y1="-72" x2="84" y2="-114"/>
			<line class="st0" x1="48" y1="-72" x2="84" y2="-108"/>
			<line class="st0" x1="54" y1="-72" x2="84" y2="-102"/>
			<line class="st0" x1="60" y1="-72" x2="84" y2="-96"/>
			<line class="st0" x1="66" y1="-72" x2="84" y2="-90"/>
			<line class="st0" x1="72" y1="-72" x2="84" y2="-84"/>
		</g>
		<g>
			<line class="st0" x1="144" y1="-144" x2="228" y2="-228"/>
		</g>
		<g>
			<line class="st0" x1="72" y1="-144" x2="156" y2="-228"/>
			<line class="st0" x1="78" y1="-144" x2="156" y2="-222"/>
			<line class="st0" x1="84" y1="-144" x2="156" y2="-216"/>
			<line class="st0" x1="90" y1="-144" x2="156" y2="-210"/>
			<line class="st0" x1="96" y1="-144" x2="156" y2="-204"/>
			<line class="st0" x1="102" y1="-144" x2="156" y2="-198"/>
			<line class="st0" x1="108" y1="-144" x2="156" y2="-192"/>
			<line class="st0" x1="114" y1="-144" x2="156" y2="-186"/>
			<line class="st0" x1="120" y1="-144" x2="156" y2="-180"/>
			<line class="st0" x1="126" y1="-144" x2="156" y2="-174"/>
			<line class="st0" x1="132" y1="-144" x2="156" y2="-168"/>
			<line class="st0" x1="138" y1="-144" x2="156" y2="-162"/>
			<line class="st0" x1="144" y1="-144" x2="156" y2="-156"/>
		</g>
		<g>
			<line class="st0" x1="0" y1="-144" x2="84" y2="-228"/>
			<line class="st0" x1="6" y1="-144" x2="84" y2="-222"/>
			<line class="st0" x1="12" y1="-144" x2="84" y2="-216"/>
			<line class="st0" x1="18" y1="-144" x2="84" y2="-210"/>
			<line class="st0" x1="24" y1="-144" x2="84" y2="-204"/>
			<line class="st0" x1="30" y1="-144" x2="84" y2="-198"/>
			<line class="st0" x1="36" y1="-144" x2="84" y2="-192"/>
			<line class="st0" x1="42" y1="-144" x2="84" y2="-186"/>
			<line class="st0" x1="48" y1="-144" x2="84" y2="-180"/>
			<line class="st0" x1="54" y1="-144" x2="84" y2="-174"/>
			<line class="st0" x1="60" y1="-144" x2="84" y2="-168"/>
			<line class="st0" x1="66" y1="-144" x2="84" y2="-162"/>
			<line class="st0" x1="72" y1="-144" x2="84" y2="-156"/>
		</g>
	</g>
</pattern>
<g id="BACKGROUND">
	<g>
		<rect class="st2" width="500" height="500"/>
		<path class="st3" d="M453.92,89.79h-11.11c-0.44-5.47-5-9.81-10.58-9.81h-16.65c0.34-1.23,0.54-2.51,0.54-3.84
			c0-7.98-6.53-14.5-14.5-14.5h-25.54c-7.98,0-14.5,6.53-14.5,14.5c0,1.33,0.2,2.62,0.54,3.84h-2.27c-5.57,0-10.13,4.35-10.58,9.81
			h-3.34c-7.57,0-13.77,6.2-13.77,13.77c0,7.57,6.2,13.77,13.77,13.77h108c7.57,0,13.77-6.2,13.77-13.77
			C467.69,95.99,461.5,89.79,453.92,89.79z"/>
		<path class="st3" d="M129.52,50.35h-4.58c-0.18-2.25-2.06-4.05-4.36-4.05h-6.86c0.14-0.51,0.22-1.04,0.22-1.58
			c0-3.29-2.69-5.98-5.98-5.98H97.44c-3.29,0-5.98,2.69-5.98,5.98c0,0.55,0.08,1.08,0.22,1.58h-0.94c-2.3,0-4.18,1.79-4.36,4.05
			h-1.38c-3.12,0-5.68,2.55-5.68,5.68c0,3.12,2.55,5.68,5.68,5.68h44.51c3.12,0,5.68-2.55,5.68-5.68
			C135.2,52.9,132.64,50.35,129.52,50.35z"/>
		<path class="st3" d="M170.11,180.64H159c-0.44-5.47-5-9.82-10.58-9.82h-16.65c0.34-1.23,0.54-2.51,0.54-3.84
			c0-7.98-6.53-14.5-14.5-14.5H92.27c-7.98,0-14.5,6.53-14.5,14.5c0,1.33,0.2,2.62,0.54,3.84h-2.27c-5.57,0-10.13,4.35-10.58,9.82
			h-3.34c-7.57,0-13.77,6.2-13.77,13.77c0,7.57,6.2,13.77,13.77,13.77h108c7.57,0,13.77-6.2,13.77-13.77
			C183.88,186.84,177.69,180.64,170.11,180.64z"/>
		<polygon class="st4" points="0,396.79 0,390.66 12.28,390.66 12.28,352.58 41.08,352.58 41.08,279.59 62.59,279.59 62.59,382.15 
			77.36,382.15 77.36,327.5 111.14,327.5 111.14,394.87 124.3,394.87 124.3,275.48 132.07,275.48 132.07,286.64 145.22,286.64 
			145.22,318.08 149.19,318.08 149.19,374.29 180.49,374.29 180.49,327.65 193.77,327.65 193.77,317.4 223.52,317.4 223.52,361.64 
			243.63,361.64 243.63,351.67 277.59,351.67 277.59,282.71 309.84,282.71 309.84,364.32 346.93,364.32 346.93,319.58 
			350.81,319.58 350.81,265.51 375.7,265.51 375.7,340.16 376.42,340.16 376.42,384.91 392,384.91 392,317.53 422.64,317.53 
			422.64,327.44 432.04,327.44 432.04,372.18 449.53,372.18 449.53,269.62 458.92,269.62 458.92,297.86 475.02,297.86 
			475.02,342.61 500,342.61 500,422.6 0,422.6 		"/>
		<path class="st5" d="M59.95,389.07v0.03c-0.12,2.76,2.14,5.03,4.9,4.87h0.03V394c1.49,2.3,4.68,2.82,6.82,1.05
			c0.56,0.22,1.12,0.31,1.68,0.31c1.65,0,3.16-0.85,3.99-2.24l10.11,12.48l-2.5,23.83h7.85h7.85l-3.23-30.88l0.01,0.01l9.81-12.11
			c1.13,1.87,3.17,2.99,5.32,2.99c0.74,0,1.49-0.12,2.23-0.4c1.15,0.93,2.54,1.4,3.91,1.4c2.05,0,4.03-0.99,5.24-2.85
			c0.09,0,0.22,0,0.31,0c3.57,0,6.45-2.95,6.24-6.55c1.86-1.21,2.85-3.2,2.85-5.21c0-1.4-0.47-2.76-1.4-3.94
			c0.28-0.74,0.43-1.49,0.43-2.23c0-2.73-1.83-5.27-4.65-6.02c-0.74-2.82-3.26-4.62-6.02-4.62c-0.74,0-1.49,0.12-2.23,0.4
			c-1.15-0.93-2.54-1.4-3.91-1.4c-0.21,0-0.42,0.02-0.62,0.04c1.47-3.33,0.76-7.41-2.14-10.03h-0.03c0.12-0.62,0.19-1.24,0.19-1.86
			c0-4.34-3.26-8.16-7.79-8.62l-0.03-0.03c-1.46-3.26-4.65-5.18-8-5.18c-1.46,0-2.95,0.37-4.34,1.18c-1.36-0.81-2.85-1.18-4.34-1.18
			c-3.32,0-6.55,1.92-8,5.18v0.03c-4.53,0.47-7.82,4.28-7.82,8.65c0,0.59,0.06,1.21,0.19,1.83c-1.92,1.74-2.88,4.13-2.88,6.48
			c0,2.39,0.96,4.75,2.88,6.48v0.03c-0.12,0.62-0.19,1.24-0.19,1.83c0,4.34,3.29,8.19,7.82,8.65c1.46,3.29,4.65,5.18,7.97,5.18
			c0.69,0,1.39-0.08,2.08-0.25l-2.41,23.02l-9.27-7.9c2.05-1.07,3.06-3.56,2.19-5.81c0.71-0.87,1.02-1.92,1.02-2.95
			c0-1.52-0.71-3.01-2.11-3.91c0-0.09,0-0.19,0-0.28c0-2.64-2.23-4.78-4.9-4.62c-0.9-1.4-2.39-2.14-3.91-2.14
			c-1.02,0-2.08,0.34-2.95,1.05c-0.56-0.22-1.12-0.31-1.68-0.31c-2.05,0-3.94,1.33-4.5,3.44c-2.08,0.56-3.44,2.45-3.44,4.5
			c0,0.56,0.09,1.12,0.31,1.68l-0.03,0.03C57.13,384.39,57.63,387.58,59.95,389.07z M96.64,390.86l-1.51-14.42
			c0.69,0.17,1.38,0.25,2.08,0.25c1.57,0,3.1-0.43,4.44-1.22c0.19,0.38,0.43,0.75,0.71,1.09h0.03c-0.28,0.74-0.43,1.49-0.43,2.23
			c0,2.16,1.14,4.19,3,5.32L96.64,390.86z"/>
		<path class="st5" d="M419.12,389.07v0.03c-0.12,2.76,2.14,5.03,4.9,4.87h0.03V394c1.49,2.3,4.68,2.82,6.82,1.05
			c0.56,0.22,1.12,0.31,1.68,0.31c1.65,0,3.16-0.85,3.99-2.24l10.11,12.48l-2.5,23.83H452h7.85l-3.23-30.88l0.01,0.01l9.81-12.11
			c1.13,1.87,3.17,2.99,5.32,2.99c0.74,0,1.49-0.12,2.23-0.4c1.15,0.93,2.54,1.4,3.91,1.4c2.05,0,4.03-0.99,5.24-2.85
			c0.09,0,0.22,0,0.31,0c3.57,0,6.45-2.95,6.24-6.55c1.86-1.21,2.85-3.2,2.85-5.21c0-1.4-0.47-2.76-1.4-3.94
			c0.28-0.74,0.43-1.49,0.43-2.23c0-2.73-1.83-5.27-4.65-6.02c-0.74-2.82-3.26-4.62-6.02-4.62c-0.74,0-1.49,0.12-2.23,0.4
			c-1.15-0.93-2.54-1.4-3.91-1.4c-0.21,0-0.42,0.02-0.62,0.04c1.47-3.33,0.76-7.41-2.14-10.03h-0.03c0.12-0.62,0.19-1.24,0.19-1.86
			c0-4.34-3.26-8.16-7.79-8.62l-0.03-0.03c-1.46-3.26-4.65-5.18-8-5.18c-1.46,0-2.95,0.37-4.34,1.18c-1.36-0.81-2.85-1.18-4.34-1.18
			c-3.32,0-6.55,1.92-8,5.18v0.03c-4.53,0.47-7.82,4.28-7.82,8.65c0,0.59,0.06,1.21,0.19,1.83c-1.92,1.74-2.88,4.13-2.88,6.48
			c0,2.39,0.96,4.75,2.88,6.48v0.03c-0.12,0.62-0.19,1.24-0.19,1.83c0,4.34,3.29,8.19,7.82,8.65c1.46,3.29,4.65,5.18,7.97,5.18
			c0.69,0,1.39-0.08,2.08-0.25l-2.41,23.02l-9.27-7.9c2.05-1.07,3.06-3.56,2.19-5.81c0.71-0.87,1.02-1.92,1.02-2.95
			c0-1.52-0.71-3.01-2.11-3.91c0-0.09,0-0.19,0-0.28c0-2.64-2.23-4.78-4.9-4.62c-0.9-1.4-2.39-2.14-3.91-2.14
			c-1.02,0-2.08,0.34-2.95,1.05c-0.56-0.22-1.12-0.31-1.68-0.31c-2.05,0-3.94,1.33-4.5,3.44c-2.08,0.56-3.44,2.45-3.44,4.5
			c0,0.56,0.09,1.12,0.31,1.68l-0.03,0.03C416.29,384.39,416.79,387.58,419.12,389.07z M455.81,390.86l-1.51-14.42
			c0.69,0.17,1.38,0.25,2.08,0.25c1.57,0,3.1-0.43,4.44-1.22c0.19,0.38,0.43,0.75,0.71,1.09h0.03c-0.28,0.74-0.43,1.49-0.43,2.23
			c0,2.16,1.14,4.19,3,5.32L455.81,390.86z"/>
		<path class="st6" d="M0,417.91v13.53h120.41c-0.87-4.7-4.45-8.38-8.87-9.21c-5.81-1.11-10,3.26-10.28,3.53
			c-0.26-0.89-2.79-9.13-11-12.04c-5.19-1.85-9.76-0.53-11.34,0c1.04-2.81,0.49-5.94-1.43-8.17c-2.06-2.4-5.4-3.38-8.51-2.47
			c-3.51-5.42-9.96-8.23-16.3-7.11c-6.25,1.13-11.28,5.87-12.76,12.06c-1.89-2.83-5.3-4.25-8.51-3.55
			c-2.87,0.62-5.17,2.81-6.04,5.68c-3.91-4.08-9.85-5.62-15.23-3.89C4.87,407.94,0.96,412.45,0,417.91z"/>
		<path class="st6" d="M498.11,426.04c2.01-2.54,1.46-5.95-0.54-7.35c-1.45-1.01-3.61-0.94-5.38,0.19
			c-0.15-5.03-3.21-9.5-7.77-11.35c-4.96-2.01-10.77-0.56-14.33,3.63c-2.13-5.1-6.74-8.09-11.04-7.54
			c-3.05,0.39-5.07,2.45-5.83,3.33c1.99-7.24-1.4-14.58-7.42-17.31c-4.66-2.11-10.36-1.21-14.66,2.22c0.23-1.79-0.78-3.51-2.42-4.17
			c-1.73-0.69-3.75-0.03-4.76,1.59c-0.6-6.06-5.25-10.52-10.3-10.69c-5.54-0.19-8.98,4.85-9.17,5.15c-0.94-1.98-3.26-2.86-5.18-2.08
			c-1.76,0.71-2.79,2.67-2.39,4.62c-2.2-2.06-5.38-2.61-7.99-1.42c-3.03,1.39-4.74,4.89-3.96,8.36c-0.86-3.38-3.62-5.79-6.73-6
			c-3.3-0.22-5.55,2.13-5.87,2.48c-0.27-0.38-4.27-5.87-10.97-5.56c-5.23,0.24-9.9,3.91-11.58,9.2c-1.18-1.11-4.16-3.6-8.65-4.23
			c-7.79-1.09-13.33,4.36-14,5.03c-1.04-0.92-2.59-1.95-4.62-2.39c-4.33-0.93-9.1,1.23-12.42,5.4c-0.15-0.19-3.01-3.6-7.48-2.99
			c-4.19,0.57-6.06,4.16-6.22,4.47c-0.14-0.37-1.99-5.18-7.17-6.41c-5.52-1.31-9.5,2.71-9.68,2.9c-0.15-1.6-1.29-2.94-2.81-3.3
			c-1.65-0.39-3.4,0.43-4.18,1.99c-0.4-0.38-3.19-2.95-7.03-2.44c-3.58,0.47-6.6,3.42-7.39,7.35c-0.15-0.05-2.26-0.8-4.09,0.57
			c-1.69,1.26-1.72,3.25-1.72,3.46c-2.55,0.36-5.95,1.11-9.68,2.75c-3.01,1.33-5.42,2.87-7.22,4.23c-2.06-1.73-4.93-1.85-6.82-0.47
			c-2.33,1.71-2.86,5.46-0.7,8.1c-1.15-0.51-2.49-0.29-3.38,0.55c-0.99,0.93-1.23,2.46-0.58,3.71c-0.02,0.5-0.04,2.49,1.43,4.2
			c2,2.35,5.02,2.11,5.32,2.08L498.11,426.04z"/>
		<rect y="419.54" class="st7" width="500" height="21.4"/>
		<rect y="439.53" class="st8" width="500" height="60.14"/>
		<rect y="477.8" class="st7" width="500" height="21.87"/>
	</g>
</g>
<g id="OBJECTS">
	<g>
		<g>
			<rect x="188.7" y="64.4" class="st9" width="122.72" height="24.05"/>
			<rect x="97.06" y="109.08" class="st10" width="306" height="315"/>
			<g>
				<rect x="85.56" y="98.83" class="st10" width="329" height="10.57"/>
				<g>
					<rect x="85.65" y="109.4" class="st9" width="328.82" height="4.26"/>
				</g>
				<g>
					<rect x="85.56" y="98.83" class="st9" width="329" height="1.47"/>
				</g>
			</g>
			<g>
				<rect x="94.64" y="256.41" class="st10" width="310.84" height="7.5"/>
				<g>
					<rect x="94.64" y="262.49" class="st9" width="310.84" height="1.42"/>
				</g>
				<g>
					<rect x="94.64" y="256.41" class="st9" width="310.84" height="1.5"/>
				</g>
			</g>
			<g>
				<rect x="94.64" y="347.58" class="st10" width="310.84" height="7.5"/>
				<g>
					<rect x="94.64" y="353.66" class="st9" width="310.84" height="1.42"/>
				</g>
				<g>
					<rect x="94.64" y="347.58" class="st9" width="310.84" height="1.5"/>
				</g>
			</g>
			<g>
				<rect x="94.64" y="362.8" class="st10" width="310.84" height="7.5"/>
				<g>
					<rect x="94.64" y="368.88" class="st9" width="310.84" height="1.42"/>
				</g>
				<g>
					<rect x="94.64" y="362.8" class="st9" width="310.84" height="1.5"/>
				</g>
			</g>
			<g>
				<rect x="94.64" y="378.01" class="st10" width="310.84" height="7.5"/>
				<g>
					<rect x="94.64" y="384.1" class="st9" width="310.84" height="1.42"/>
				</g>
				<g>
					<rect x="94.64" y="378.01" class="st9" width="310.84" height="1.5"/>
				</g>
			</g>
			<g>
				<rect x="94.64" y="393.23" class="st10" width="310.84" height="7.5"/>
				<g>
					<rect x="94.64" y="399.32" class="st9" width="310.84" height="1.42"/>
				</g>
				<g>
					<rect x="94.64" y="393.23" class="st9" width="310.84" height="1.5"/>
				</g>
			</g>
			<g>
				<rect x="94.64" y="408.45" class="st10" width="310.84" height="7.5"/>
				<g>
					<rect x="94.64" y="414.53" class="st9" width="310.84" height="1.42"/>
				</g>
				<g>
					<rect x="94.64" y="408.45" class="st9" width="310.84" height="1.5"/>
				</g>
			</g>
			<g>
				<g>
					<g>
						<g>
							<rect x="112.82" y="211.04" class="st11" width="25.18" height="25.18"/>
						</g>
						<g>
							<polygon class="st11" points="138,236.22 112.82,236.22 112.82,211.04 							"/>
						</g>
						<rect x="113.98" y="212.19" class="st12" width="22.87" height="22.87"/>
						<g>
							<g>
								<g>
									<g>
										<rect x="115.18" y="213.43" class="st13" width="9.58" height="9.58"/>
										
											<pattern  id="SVGID_1_" xlink:href="#Diagonal_Lines_2" patternTransform="matrix(0.144 0 0 0.0852 -6181.3154 -6689.3271)">
										</pattern>
										<rect x="115.18" y="213.43" class="st14" width="9.58" height="9.58"/>
									</g>
									<g>
										<rect x="126.06" y="213.43" class="st13" width="9.58" height="9.58"/>
										
											<pattern  id="SVGID_2_" xlink:href="#Diagonal_Lines_2" patternTransform="matrix(0.144 0 0 0.0852 -6180.7954 -6689.3271)">
										</pattern>
										<rect x="126.06" y="213.43" class="st15" width="9.58" height="9.58"/>
									</g>
								</g>
							</g>
							<g>
								<g>
									<g>
										<rect x="115.18" y="224.24" class="st13" width="9.58" height="9.58"/>
										
											<pattern  id="SVGID_3_" xlink:href="#Diagonal_Lines_2" patternTransform="matrix(0.144 0 0 0.0852 -6181.3154 -6678.5166)">
										</pattern>
										<rect x="115.18" y="224.24" class="st16" width="9.58" height="9.58"/>
									</g>
									<g>
										<rect x="126.06" y="224.24" class="st13" width="9.58" height="9.58"/>
										
											<pattern  id="SVGID_4_" xlink:href="#Diagonal_Lines_2" patternTransform="matrix(0.144 0 0 0.0852 -6180.7954 -6678.5166)">
										</pattern>
										<rect x="126.06" y="224.24" class="st17" width="9.58" height="9.58"/>
									</g>
								</g>
							</g>
						</g>
					</g>
				</g>
				<g>
					<g>
						<g>
							<rect x="112.57" y="133.2" class="st11" width="25.18" height="25.18"/>
						</g>
						<g>
							<polygon class="st11" points="137.75,158.39 112.57,158.39 112.57,133.2 							"/>
						</g>
						<rect x="113.73" y="134.36" class="st12" width="22.87" height="22.87"/>
						<g>
							<g>
								<g>
									<g>
										<rect x="114.93" y="135.6" class="st13" width="9.58" height="9.58"/>
										
											<pattern  id="SVGID_5_" xlink:href="#Diagonal_Lines_2" patternTransform="matrix(0.144 0 0 0.0852 -6181.5654 -6693.5601)">
										</pattern>
										<rect x="114.93" y="135.6" class="st18" width="9.58" height="9.58"/>
									</g>
									<g>
										<rect x="125.81" y="135.6" class="st13" width="9.58" height="9.58"/>
										
											<pattern  id="SVGID_6_" xlink:href="#Diagonal_Lines_2" patternTransform="matrix(0.144 0 0 0.0852 -6181.0454 -6693.5601)">
										</pattern>
										<rect x="125.81" y="135.6" class="st19" width="9.58" height="9.58"/>
									</g>
								</g>
							</g>
							<g>
								<g>
									<g>
										<rect x="114.93" y="146.41" class="st13" width="9.58" height="9.58"/>
										
											<pattern  id="SVGID_7_" xlink:href="#Diagonal_Lines_2" patternTransform="matrix(0.144 0 0 0.0852 -6181.5654 -6682.7495)">
										</pattern>
										<rect x="114.93" y="146.41" class="st20" width="9.58" height="9.58"/>
									</g>
									<g>
										<rect x="125.81" y="146.41" class="st13" width="9.58" height="9.58"/>
										
											<pattern  id="SVGID_8_" xlink:href="#Diagonal_Lines_2" patternTransform="matrix(0.144 0 0 0.0852 -6181.0454 -6682.7495)">
										</pattern>
										<rect x="125.81" y="146.41" class="st21" width="9.58" height="9.58"/>
									</g>
								</g>
							</g>
						</g>
					</g>
				</g>
				<g>
					<g>
						<g>
							<rect x="112.82" y="283.37" class="st11" width="25.18" height="25.18"/>
						</g>
						<g>
							<polygon class="st11" points="138,308.55 112.82,308.55 112.82,283.37 							"/>
						</g>
						<rect x="113.98" y="284.53" class="st12" width="22.87" height="22.87"/>
						<g>
							<g>
								<g>
									<g>
										<rect x="115.18" y="285.77" class="st13" width="9.58" height="9.58"/>
										
											<pattern  id="SVGID_9_" xlink:href="#Diagonal_Lines_2" patternTransform="matrix(0.144 0 0 0.0852 -6181.3154 -6616.9937)">
										</pattern>
										<rect x="115.18" y="285.77" class="st22" width="9.58" height="9.58"/>
									</g>
									<g>
										<rect x="126.06" y="285.77" class="st13" width="9.58" height="9.58"/>
										
											<pattern  id="SVGID_10_" xlink:href="#Diagonal_Lines_2" patternTransform="matrix(0.144 0 0 0.0852 -6180.7954 -6616.9937)">
										</pattern>
										<rect x="126.06" y="285.77" class="st23" width="9.58" height="9.58"/>
									</g>
								</g>
							</g>
							<g>
								<g>
									<g>
										<rect x="115.18" y="296.58" class="st13" width="9.58" height="9.58"/>
										
											<pattern  id="SVGID_11_" xlink:href="#Diagonal_Lines_2" patternTransform="matrix(0.144 0 0 0.0852 -6181.3154 -6606.1831)">
										</pattern>
										<rect x="115.18" y="296.58" class="st24" width="9.58" height="9.58"/>
									</g>
									<g>
										<rect x="126.06" y="296.58" class="st13" width="9.58" height="9.58"/>
										
											<pattern  id="SVGID_12_" xlink:href="#Diagonal_Lines_2" patternTransform="matrix(0.144 0 0 0.0852 -6180.7954 -6606.1831)">
										</pattern>
										<rect x="126.06" y="296.58" class="st25" width="9.58" height="9.58"/>
									</g>
								</g>
							</g>
						</g>
					</g>
				</g>
			</g>
			<g class="st26">
				<polygon class="st10" points="166.56,424.08 129.56,424.08 129.56,129.08 143.06,100.58 166.56,96.58 				"/>
			</g>
			<g>
				<rect x="94.64" y="184.08" class="st10" width="310.84" height="7.5"/>
				<g>
					<rect x="94.64" y="190.16" class="st9" width="310.84" height="1.42"/>
				</g>
				<g>
					<rect x="94.64" y="184.08" class="st9" width="310.84" height="1.5"/>
				</g>
			</g>
			<rect x="152.06" y="85.08" class="st9" width="196" height="339"/>
			<polygon class="st12" points="180.63,319.24 189.5,306.88 123.82,317.08 123.81,319.24 			"/>
			<polygon class="st12" points="319.52,319.24 310.65,306.88 376.33,317.08 376.33,319.24 			"/>
			<g class="st26">
				<polygon class="st10" points="348.06,339.41 348.06,362.59 331.06,380.08 148.39,380.08 148.39,339.41 				"/>
			</g>
			<g>
				<rect x="140.4" y="85.08" class="st9" width="219.33" height="12"/>
				<g>
					<rect x="152.23" y="97.08" class="st9" width="195.67" height="4.83"/>
				</g>
				<g>
					<rect x="140.4" y="85.08" class="st9" width="219.33" height="1.67"/>
				</g>
			</g>
			<rect x="181.28" y="56.88" class="st9" width="137.56" height="7.53"/>
			<g>
				<rect x="188.7" y="64.4" class="st9" width="122.72" height="3.03"/>
			</g>
			<g>
				<rect x="181.28" y="56.88" class="st9" width="137.56" height="1.05"/>
			</g>
			<g>
				<g class="st27">
					<rect x="219.31" y="372.38" class="st11" width="61.5" height="51.58"/>
				</g>
				<g class="st28">
					<polygon class="st11" points="280.81,423.95 219.31,423.95 219.31,372.38 					"/>
				</g>
				<rect x="221.27" y="374.08" class="st12" width="57.58" height="50"/>
				<g>
					<g>
						<rect x="224.6" y="376.74" class="st13" width="23.67" height="44.67"/>
						<pattern  id="SVGID_13_" xlink:href="#Diagonal_Lines_2" patternTransform="matrix(1 0 0 1 8.0208 24.0763)">
						</pattern>
						<rect x="224.6" y="376.74" class="st29" width="23.67" height="44.67"/>
					</g>
					<g>
						<rect x="251.85" y="376.74" class="st13" width="23.67" height="44.67"/>
						<pattern  id="SVGID_14_" xlink:href="#Diagonal_Lines_2" patternTransform="matrix(1 0 0 1 8.0208 24.0763)">
						</pattern>
						<rect x="251.85" y="376.74" class="st30" width="23.67" height="44.67"/>
					</g>
				</g>
			</g>
			<g>
				<g>
					<g>
						<rect x="292.86" y="363.08" class="st9" width="23.16" height="53.33"/>
					</g>
					<g>
						<polygon class="st9" points="316.02,363.08 316.02,416.3 312.19,412.29 306.44,379 292.88,363.08 						"/>
					</g>
					<rect x="294.48" y="364.9" class="st12" width="19.92" height="49.68"/>
					<g>
						<g>
							<rect x="295.63" y="366.29" class="st13" width="8.19" height="46.91"/>
							<pattern  id="SVGID_15_" xlink:href="#Diagonal_Lines_2" patternTransform="matrix(1 0 0 0.8951 6.5625 -698.1686)">
							</pattern>
							<rect x="295.63" y="366.29" class="st31" width="8.19" height="46.91"/>
						</g>
						<g>
							<rect x="305.06" y="366.29" class="st13" width="8.19" height="46.91"/>
							<pattern  id="SVGID_16_" xlink:href="#Diagonal_Lines_2" patternTransform="matrix(1 0 0 0.8951 6.5625 -698.1686)">
							</pattern>
							<rect x="305.06" y="366.29" class="st32" width="8.19" height="46.91"/>
						</g>
					</g>
				</g>
				<g>
					<g>
						<rect x="184.11" y="363.08" class="st9" width="23.16" height="53.33"/>
					</g>
					<g>
						<polygon class="st9" points="207.27,363.08 207.27,416.3 203.44,412.29 197.69,379 184.13,363.08 						"/>
					</g>
					<rect x="185.73" y="364.9" class="st12" width="19.92" height="49.68"/>
					<g>
						<g>
							<rect x="186.88" y="366.29" class="st13" width="8.19" height="46.91"/>
							<pattern  id="SVGID_17_" xlink:href="#Diagonal_Lines_2" patternTransform="matrix(1 0 0 0.8951 -30.1875 -698.1686)">
							</pattern>
							<rect x="186.88" y="366.29" class="st33" width="8.19" height="46.91"/>
						</g>
						<g>
							<rect x="196.31" y="366.29" class="st13" width="8.19" height="46.91"/>
							<pattern  id="SVGID_18_" xlink:href="#Diagonal_Lines_2" patternTransform="matrix(1 0 0 0.8951 -30.1875 -698.1686)">
							</pattern>
							<rect x="196.31" y="366.29" class="st34" width="8.19" height="46.91"/>
						</g>
					</g>
				</g>
			</g>
			<g>
				<rect x="219.5" y="362.58" class="st9" width="61.13" height="6.25"/>
				<g>
					<rect x="219.5" y="362.58" class="st9" width="61.13" height="1.08"/>
				</g>
				<g>
					<rect x="219.5" y="367.76" class="st9" width="61.13" height="1.02"/>
				</g>
			</g>
			<g>
				<g>
					<path class="st12" d="M326.56,327.68h-153c1.43-2.55,2.97-5.02,4.6-7.41c16.46-24.02,42.54-39.54,71.89-39.54
						c29.37,0,55.45,15.52,71.91,39.54C323.59,322.66,325.13,325.13,326.56,327.68z"/>
				</g>
				<g>
					<path class="st12" d="M323.06,326.09h-146c1.37-2.38,2.83-4.68,4.39-6.91c15.7-22.39,40.59-36.85,68.6-36.85
						c28.03,0,52.92,14.46,68.62,36.85C320.23,321.41,321.7,323.71,323.06,326.09z"/>
				</g>
				<g>
					<path class="st9" d="M319.44,325.03H180.68c1.3-2.21,2.69-4.35,4.17-6.43c14.93-20.82,38.58-34.28,65.2-34.28
						c26.64,0,50.29,13.45,65.22,34.28C316.75,320.68,318.15,322.82,319.44,325.03z"/>
				</g>
				<g>
					<rect x="123.81" y="319.24" class="st12" width="252.5" height="2.46"/>
				</g>
			</g>
			<rect x="353.56" y="336.08" class="st9" width="10.25" height="87.25"/>
			<g class="st35">
				<polygon class="st9" points="363.81,343.19 363.81,346.38 353.56,356.93 353.56,339.41 359.06,339.41 				"/>
			</g>
			<rect x="135.06" y="336.08" class="st9" width="10.25" height="87.25"/>
			<path class="st36" d="M307.06,336.62c0,3.79-0.66,7.46-1.89,10.96H194.95c-1.23-3.5-1.89-7.17-1.89-10.96
				c0-0.18,0-0.36,0.01-0.54c0.38-23.34,25.75-42.17,56.99-42.17s56.61,18.83,56.99,42.17
				C307.06,336.26,307.06,336.44,307.06,336.62z"/>
			<path class="st9" d="M303.9,335.85c0,3.54-0.62,6.97-1.79,10.24h-104.1c-1.16-3.27-1.78-6.7-1.78-10.24c0-0.17,0-0.34,0.01-0.5
				c0.36-21.8,24.32-39.39,53.82-39.39s53.46,17.59,53.82,39.39C303.9,335.51,303.9,335.68,303.9,335.85z"/>
			<polygon class="st9" points="376.31,321.7 373.31,328.45 126.81,328.45 123.81,321.7 			"/>
			<rect x="135.06" y="330.76" class="st9" width="228.5" height="16.81"/>
			<rect x="135.06" y="344.58" class="st36" width="228.5" height="3"/>
			<rect x="135.06" y="328.58" class="st36" width="228.5" height="2.25"/>
			<rect x="205.27" y="320.49" class="st9" width="88.96" height="13.67"/>
			<path class="st36" d="M285.5,321.58c-5.36-9.94-19.2-17.01-35.44-17.01s-30.08,7.07-35.44,17.01c-0.05,0.08-0.1,0.16-0.14,0.25
				v15.64v0.11h71.16v-0.11v-15.64C285.6,321.74,285.55,321.66,285.5,321.58z"/>
			<path class="st36" d="M285.44,321.58c-5.36-9.94-19.2-17.01-35.44-17.01s-30.08,7.07-35.44,17.01c-0.05,0.08-0.1,0.16-0.14,0.25
				v15.64v0.11h71.16v-0.11v-15.64C285.54,321.74,285.49,321.66,285.44,321.58z"/>
			<g>
				<path class="st9" d="M268.55,307.94c-0.53-0.21-1.06-0.42-1.61-0.61h-3.16v-0.96c-0.91-0.25-1.83-0.47-2.78-0.66v1.63h-21.82
					v-1.66c-0.94,0.19-1.87,0.41-2.78,0.65v1.01h-3.35c-0.55,0.19-1.08,0.4-1.61,0.61h4.96v2.1h-9.53c-0.38,0.2-0.76,0.4-1.13,0.61
					h10.65v2.1h-13.86c-0.28,0.2-0.56,0.4-0.83,0.61h14.69v2.1h-17.1c-0.21,0.2-0.43,0.4-0.63,0.61h17.73v2.1h-19.59
					c-0.16,0.2-0.3,0.41-0.45,0.61h20.04v2.1h-21.43c-0.12,0.2-0.26,0.4-0.37,0.61h21.8v2.1h-21.99v0.61h21.99v2.1h-21.99v0.61
					h21.99v2.1h-21.99v0.61h21.99v2.1h-21.99v0.61h21.99v2.1h-21.99v0.61h21.99v2.1h-21.99v0.31v0.11h71.16v-0.11v-0.31h-21.8v-2.1
					h21.8v-0.61h-21.8v-2.1h21.8v-0.61h-21.8v-2.1h21.8v-0.61h-21.8v-2.1h21.8v-0.61h-21.8v-2.1h21.8v-0.61h-21.8v-2.1h21.61
					c-0.11-0.21-0.25-0.41-0.37-0.61h-21.24v-2.1h19.85c-0.15-0.2-0.29-0.41-0.45-0.61h-19.4v-2.1h17.54
					c-0.2-0.21-0.42-0.41-0.63-0.61h-16.91v-2.1h14.5c-0.27-0.21-0.55-0.41-0.83-0.61h-13.67v-2.1h10.47
					c-0.37-0.21-0.75-0.41-1.13-0.61h-9.34v-2.1H268.55z M261.01,337.16h-21.82v-2.1h21.82V337.16z M261.01,334.45h-21.82v-2.1
					h21.82V334.45z M261.01,331.73h-21.82v-2.1h21.82V331.73z M261.01,329.02h-21.82v-2.1h21.82V329.02z M261.01,326.31h-21.82v-2.1
					h21.82V326.31z M261.01,323.6h-21.82v-2.1h21.82V323.6z M261.01,320.89h-21.82v-2.1h21.82V320.89z M261.01,318.18h-21.82v-2.1
					h21.82V318.18z M261.01,315.47h-21.82v-2.1h21.82V315.47z M261.01,312.75h-21.82v-2.1h21.82V312.75z M261.01,310.04h-21.82v-2.1
					h21.82V310.04z"/>
			</g>
			<path class="st0" d="M285.5,321.58c-5.36-9.94-19.2-17.01-35.44-17.01s-30.08,7.07-35.44,17.01c-0.05,0.08-0.1,0.16-0.14,0.25
				v15.64v0.11h71.16v-0.11v-15.64C285.6,321.74,285.55,321.66,285.5,321.58z"/>
			<g>
				<g>
					<g>
						<g>
							<rect x="165.44" y="175.45" class="st11" width="33.58" height="33.58"/>
						</g>
						<g>
							<polygon class="st11" points="199.02,209.03 165.44,209.03 165.44,175.45 							"/>
						</g>
						<rect x="166.98" y="176.99" class="st12" width="30.5" height="30.5"/>
						<g>
							<g>
								<g>
									<g>
										<rect x="168.58" y="178.64" class="st13" width="12.78" height="12.78"/>
										
											<pattern  id="SVGID_19_" xlink:href="#Diagonal_Lines_2" patternTransform="matrix(0.192 0 0 0.1136 -5904.6338 -6438.0747)">
										</pattern>
										<rect x="168.58" y="178.64" class="st37" width="12.78" height="12.78"/>
									</g>
									<g>
										<rect x="183.1" y="178.64" class="st13" width="12.78" height="12.78"/>
										
											<pattern  id="SVGID_20_" xlink:href="#Diagonal_Lines_2" patternTransform="matrix(0.192 0 0 0.1136 -5903.9404 -6438.0747)">
										</pattern>
										<rect x="183.1" y="178.64" class="st38" width="12.78" height="12.78"/>
									</g>
								</g>
							</g>
							<g>
								<g>
									<g>
										<rect x="168.58" y="193.06" class="st13" width="12.78" height="12.78"/>
										
											<pattern  id="SVGID_21_" xlink:href="#Diagonal_Lines_2" patternTransform="matrix(0.192 0 0 0.1136 -5904.6338 -6423.6582)">
										</pattern>
										<rect x="168.58" y="193.06" class="st39" width="12.78" height="12.78"/>
									</g>
									<g>
										<rect x="183.1" y="193.06" class="st13" width="12.78" height="12.78"/>
										
											<pattern  id="SVGID_22_" xlink:href="#Diagonal_Lines_2" patternTransform="matrix(0.192 0 0 0.1136 -5903.9404 -6423.6582)">
										</pattern>
										<rect x="183.1" y="193.06" class="st40" width="12.78" height="12.78"/>
									</g>
								</g>
							</g>
						</g>
					</g>
					<g>
						<g>
							<rect x="206.66" y="175.12" class="st11" width="33.58" height="33.58"/>
						</g>
						<g>
							<polygon class="st11" points="240.24,208.7 206.66,208.7 206.66,175.12 							"/>
						</g>
						<rect x="208.2" y="176.66" class="st12" width="30.5" height="30.5"/>
						<g>
							<g>
								<g>
									<g>
										<rect x="209.8" y="178.31" class="st13" width="12.78" height="12.78"/>
										
											<pattern  id="SVGID_23_" xlink:href="#Diagonal_Lines_2" patternTransform="matrix(0.192 0 0 0.1136 -5863.4116 -6438.4082)">
										</pattern>
										<rect x="209.8" y="178.31" class="st41" width="12.78" height="12.78"/>
									</g>
									<g>
										<rect x="224.32" y="178.31" class="st13" width="12.78" height="12.78"/>
										
											<pattern  id="SVGID_24_" xlink:href="#Diagonal_Lines_2" patternTransform="matrix(0.192 0 0 0.1136 -5862.7183 -6438.4082)">
										</pattern>
										<rect x="224.32" y="178.31" class="st42" width="12.78" height="12.78"/>
									</g>
								</g>
							</g>
							<g>
								<g>
									<g>
										<rect x="209.8" y="192.73" class="st13" width="12.78" height="12.78"/>
										
											<pattern  id="SVGID_25_" xlink:href="#Diagonal_Lines_2" patternTransform="matrix(0.192 0 0 0.1136 -5863.4116 -6423.9912)">
										</pattern>
										<rect x="209.8" y="192.73" class="st43" width="12.78" height="12.78"/>
									</g>
									<g>
										<rect x="224.32" y="192.73" class="st13" width="12.78" height="12.78"/>
										
											<pattern  id="SVGID_26_" xlink:href="#Diagonal_Lines_2" patternTransform="matrix(0.192 0 0 0.1136 -5862.7183 -6423.9912)">
										</pattern>
										<rect x="224.32" y="192.73" class="st44" width="12.78" height="12.78"/>
									</g>
								</g>
							</g>
						</g>
					</g>
				</g>
				<g>
					<g>
						<g>
							<rect x="304.1" y="175.45" class="st11" width="33.58" height="33.58"/>
						</g>
						<g>
							<polygon class="st11" points="337.69,209.03 304.1,209.03 304.1,175.45 							"/>
						</g>
						<rect x="305.65" y="176.99" class="st12" width="30.5" height="30.5"/>
						<g>
							<g>
								<g>
									<g>
										<rect x="307.25" y="178.64" class="st13" width="12.78" height="12.78"/>
										
											<pattern  id="SVGID_27_" xlink:href="#Diagonal_Lines_2" patternTransform="matrix(0.192 0 0 0.1136 -5876.5732 -6438.0747)">
										</pattern>
										<rect x="307.25" y="178.64" class="st45" width="12.78" height="12.78"/>
									</g>
									<g>
										<rect x="321.77" y="178.64" class="st13" width="12.78" height="12.78"/>
										
											<pattern  id="SVGID_28_" xlink:href="#Diagonal_Lines_2" patternTransform="matrix(0.192 0 0 0.1136 -5875.8799 -6438.0747)">
										</pattern>
										<rect x="321.77" y="178.64" class="st46" width="12.78" height="12.78"/>
									</g>
								</g>
							</g>
							<g>
								<g>
									<g>
										<rect x="307.25" y="193.06" class="st13" width="12.78" height="12.78"/>
										
											<pattern  id="SVGID_29_" xlink:href="#Diagonal_Lines_2" patternTransform="matrix(0.192 0 0 0.1136 -5876.5732 -6423.6582)">
										</pattern>
										<rect x="307.25" y="193.06" class="st47" width="12.78" height="12.78"/>
									</g>
									<g>
										<rect x="321.77" y="193.06" class="st13" width="12.78" height="12.78"/>
										
											<pattern  id="SVGID_30_" xlink:href="#Diagonal_Lines_2" patternTransform="matrix(0.192 0 0 0.1136 -5875.8799 -6423.6582)">
										</pattern>
										<rect x="321.77" y="193.06" class="st48" width="12.78" height="12.78"/>
									</g>
								</g>
							</g>
						</g>
					</g>
					<g>
						<g>
							<rect x="262.88" y="176.12" class="st11" width="33.58" height="33.58"/>
						</g>
						<g>
							<polygon class="st11" points="296.47,209.7 262.88,209.7 262.88,176.12 							"/>
						</g>
						<rect x="264.42" y="177.66" class="st12" width="30.5" height="30.5"/>
						<g>
							<g>
								<g>
									<g>
										<rect x="266.02" y="179.31" class="st13" width="12.78" height="12.78"/>
										
											<pattern  id="SVGID_31_" xlink:href="#Diagonal_Lines_2" patternTransform="matrix(0.192 0 0 0.1136 -5807.1895 -6437.4082)">
										</pattern>
										<rect x="266.02" y="179.31" class="st49" width="12.78" height="12.78"/>
									</g>
									<g>
										<rect x="280.54" y="179.31" class="st13" width="12.78" height="12.78"/>
										
											<pattern  id="SVGID_32_" xlink:href="#Diagonal_Lines_2" patternTransform="matrix(0.192 0 0 0.1136 -5806.4961 -6437.4082)">
										</pattern>
										<rect x="280.54" y="179.31" class="st50" width="12.78" height="12.78"/>
									</g>
								</g>
							</g>
							<g>
								<g>
									<g>
										<rect x="266.02" y="193.73" class="st13" width="12.78" height="12.78"/>
										
											<pattern  id="SVGID_33_" xlink:href="#Diagonal_Lines_2" patternTransform="matrix(0.192 0 0 0.1136 -5807.1895 -6422.9912)">
										</pattern>
										<rect x="266.02" y="193.73" class="st51" width="12.78" height="12.78"/>
									</g>
									<g>
										<rect x="280.54" y="193.73" class="st13" width="12.78" height="12.78"/>
										
											<pattern  id="SVGID_34_" xlink:href="#Diagonal_Lines_2" patternTransform="matrix(0.192 0 0 0.1136 -5806.4961 -6422.9912)">
										</pattern>
										<rect x="280.54" y="193.73" class="st52" width="12.78" height="12.78"/>
									</g>
								</g>
							</g>
						</g>
					</g>
				</g>
			</g>
			<g>
				<g>
					<g>
						<g>
							<rect x="165.44" y="244.45" class="st11" width="33.58" height="33.58"/>
						</g>
						<g>
							<polygon class="st9" points="199.02,278.03 165.44,278.03 165.44,244.45 							"/>
						</g>
						<rect x="166.98" y="245.99" class="st12" width="30.5" height="30.5"/>
						<g>
							<g>
								<g>
									<g>
										<rect x="168.58" y="247.64" class="st13" width="12.78" height="12.78"/>
										
											<pattern  id="SVGID_35_" xlink:href="#Diagonal_Lines_2" patternTransform="matrix(0.192 0 0 0.1136 -5904.6338 -6369.0747)">
										</pattern>
										<rect x="168.58" y="247.64" class="st53" width="12.78" height="12.78"/>
									</g>
									<g>
										<rect x="183.1" y="247.64" class="st13" width="12.78" height="12.78"/>
										
											<pattern  id="SVGID_36_" xlink:href="#Diagonal_Lines_2" patternTransform="matrix(0.192 0 0 0.1136 -5903.9404 -6369.0747)">
										</pattern>
										<rect x="183.1" y="247.64" class="st54" width="12.78" height="12.78"/>
									</g>
								</g>
							</g>
							<g>
								<g>
									<g>
										<rect x="168.58" y="262.06" class="st13" width="12.78" height="12.78"/>
										
											<pattern  id="SVGID_37_" xlink:href="#Diagonal_Lines_2" patternTransform="matrix(0.192 0 0 0.1136 -5904.6338 -6354.6582)">
										</pattern>
										<rect x="168.58" y="262.06" class="st55" width="12.78" height="12.78"/>
									</g>
									<g>
										<rect x="183.1" y="262.06" class="st13" width="12.78" height="12.78"/>
										
											<pattern  id="SVGID_38_" xlink:href="#Diagonal_Lines_2" patternTransform="matrix(0.192 0 0 0.1136 -5903.9404 -6354.6582)">
										</pattern>
										<rect x="183.1" y="262.06" class="st56" width="12.78" height="12.78"/>
									</g>
								</g>
							</g>
						</g>
					</g>
					<g>
						<g>
							<rect x="206.66" y="244.12" class="st11" width="33.58" height="33.58"/>
						</g>
						<g>
							<polygon class="st9" points="240.24,277.7 206.66,277.7 206.66,244.12 							"/>
						</g>
						<rect x="208.2" y="245.66" class="st12" width="30.5" height="30.5"/>
						<g>
							<g>
								<g>
									<g>
										<rect x="209.8" y="247.31" class="st13" width="12.78" height="12.78"/>
										
											<pattern  id="SVGID_39_" xlink:href="#Diagonal_Lines_2" patternTransform="matrix(0.192 0 0 0.1136 -5863.4116 -6369.4082)">
										</pattern>
										<rect x="209.8" y="247.31" class="st57" width="12.78" height="12.78"/>
									</g>
									<g>
										<rect x="224.32" y="247.31" class="st13" width="12.78" height="12.78"/>
										
											<pattern  id="SVGID_40_" xlink:href="#Diagonal_Lines_2" patternTransform="matrix(0.192 0 0 0.1136 -5862.7183 -6369.4082)">
										</pattern>
										<rect x="224.32" y="247.31" class="st58" width="12.78" height="12.78"/>
									</g>
								</g>
							</g>
							<g>
								<g>
									<g>
										<rect x="209.8" y="261.73" class="st13" width="12.78" height="12.78"/>
										
											<pattern  id="SVGID_41_" xlink:href="#Diagonal_Lines_2" patternTransform="matrix(0.192 0 0 0.1136 -5863.4116 -6354.9912)">
										</pattern>
										<rect x="209.8" y="261.73" class="st59" width="12.78" height="12.78"/>
									</g>
									<g>
										<rect x="224.32" y="261.73" class="st13" width="12.78" height="12.78"/>
										
											<pattern  id="SVGID_42_" xlink:href="#Diagonal_Lines_2" patternTransform="matrix(0.192 0 0 0.1136 -5862.7183 -6354.9912)">
										</pattern>
										<rect x="224.32" y="261.73" class="st60" width="12.78" height="12.78"/>
									</g>
								</g>
							</g>
						</g>
					</g>
				</g>
				<g>
					<g>
						<g>
							<rect x="304.1" y="244.45" class="st11" width="33.58" height="33.58"/>
						</g>
						<g>
							<polygon class="st9" points="337.69,278.03 304.1,278.03 304.1,244.45 							"/>
						</g>
						<rect x="305.65" y="245.99" class="st12" width="30.5" height="30.5"/>
						<g>
							<g>
								<g>
									<g>
										<rect x="307.25" y="247.64" class="st13" width="12.78" height="12.78"/>
										
											<pattern  id="SVGID_43_" xlink:href="#Diagonal_Lines_2" patternTransform="matrix(0.192 0 0 0.1136 -5876.5732 -6369.0747)">
										</pattern>
										<rect x="307.25" y="247.64" class="st61" width="12.78" height="12.78"/>
									</g>
									<g>
										<rect x="321.77" y="247.64" class="st13" width="12.78" height="12.78"/>
										
											<pattern  id="SVGID_44_" xlink:href="#Diagonal_Lines_2" patternTransform="matrix(0.192 0 0 0.1136 -5875.8799 -6369.0747)">
										</pattern>
										<rect x="321.77" y="247.64" class="st62" width="12.78" height="12.78"/>
									</g>
								</g>
							</g>
							<g>
								<g>
									<g>
										<rect x="307.25" y="262.06" class="st13" width="12.78" height="12.78"/>
										
											<pattern  id="SVGID_45_" xlink:href="#Diagonal_Lines_2" patternTransform="matrix(0.192 0 0 0.1136 -5876.5732 -6354.6582)">
										</pattern>
										<rect x="307.25" y="262.06" class="st63" width="12.78" height="12.78"/>
									</g>
									<g>
										<rect x="321.77" y="262.06" class="st13" width="12.78" height="12.78"/>
										
											<pattern  id="SVGID_46_" xlink:href="#Diagonal_Lines_2" patternTransform="matrix(0.192 0 0 0.1136 -5875.8799 -6354.6582)">
										</pattern>
										<rect x="321.77" y="262.06" class="st64" width="12.78" height="12.78"/>
									</g>
								</g>
							</g>
						</g>
					</g>
					<g>
						<g>
							<rect x="262.88" y="245.12" class="st11" width="33.58" height="33.58"/>
						</g>
						<g>
							<polygon class="st9" points="296.47,278.7 262.88,278.7 262.88,245.12 							"/>
						</g>
						<rect x="264.42" y="246.66" class="st12" width="30.5" height="30.5"/>
						<g>
							<g>
								<g>
									<g>
										<rect x="266.02" y="248.31" class="st13" width="12.78" height="12.78"/>
										
											<pattern  id="SVGID_47_" xlink:href="#Diagonal_Lines_2" patternTransform="matrix(0.192 0 0 0.1136 -5807.1895 -6368.4082)">
										</pattern>
										<rect x="266.02" y="248.31" class="st65" width="12.78" height="12.78"/>
									</g>
									<g>
										<rect x="280.54" y="248.31" class="st13" width="12.78" height="12.78"/>
										
											<pattern  id="SVGID_48_" xlink:href="#Diagonal_Lines_2" patternTransform="matrix(0.192 0 0 0.1136 -5806.4961 -6368.4082)">
										</pattern>
										<rect x="280.54" y="248.31" class="st66" width="12.78" height="12.78"/>
									</g>
								</g>
							</g>
							<g>
								<g>
									<g>
										<rect x="266.02" y="262.73" class="st13" width="12.78" height="12.78"/>
										
											<pattern  id="SVGID_49_" xlink:href="#Diagonal_Lines_2" patternTransform="matrix(0.192 0 0 0.1136 -5807.1895 -6353.9912)">
										</pattern>
										<rect x="266.02" y="262.73" class="st67" width="12.78" height="12.78"/>
									</g>
									<g>
										<rect x="280.54" y="262.73" class="st13" width="12.78" height="12.78"/>
										
											<pattern  id="SVGID_50_" xlink:href="#Diagonal_Lines_2" patternTransform="matrix(0.192 0 0 0.1136 -5806.4961 -6353.9912)">
										</pattern>
										<rect x="280.54" y="262.73" class="st68" width="12.78" height="12.78"/>
									</g>
								</g>
							</g>
						</g>
					</g>
				</g>
			</g>
			<g>
				<rect x="151.9" y="226.08" class="st9" width="196.33" height="7.5"/>
				<g>
					<rect x="151.9" y="232.16" class="st9" width="196.33" height="1.42"/>
				</g>
				<g>
					<rect x="151.9" y="226.08" class="st9" width="196.33" height="1.5"/>
				</g>
			</g>
			<g>
				<rect x="151.9" y="152.74" class="st9" width="196.33" height="7.5"/>
				<g>
					<rect x="151.9" y="158.83" class="st9" width="196.33" height="1.42"/>
				</g>
				<g>
					<rect x="151.9" y="152.74" class="st9" width="196.33" height="1.5"/>
				</g>
			</g>
			<g>
				<g>
					<g>
						<g>
							<rect x="362.32" y="211.04" class="st11" width="25.18" height="25.18"/>
						</g>
						<g>
							<polygon class="st11" points="387.5,236.22 362.32,236.22 362.32,211.04 							"/>
						</g>
						<rect x="363.48" y="212.19" class="st12" width="22.87" height="22.87"/>
						<g>
							<g>
								<g>
									<g>
										<rect x="364.68" y="213.43" class="st13" width="9.58" height="9.58"/>
										
											<pattern  id="SVGID_51_" xlink:href="#Diagonal_Lines_2" patternTransform="matrix(0.144 0 0 0.0852 -6180.6318 -6689.3271)">
										</pattern>
										<rect x="364.68" y="213.43" class="st69" width="9.58" height="9.58"/>
									</g>
									<g>
										<rect x="375.56" y="213.43" class="st13" width="9.58" height="9.58"/>
										
											<pattern  id="SVGID_52_" xlink:href="#Diagonal_Lines_2" patternTransform="matrix(0.144 0 0 0.0852 -6180.1123 -6689.3271)">
										</pattern>
										<rect x="375.56" y="213.43" class="st70" width="9.58" height="9.58"/>
									</g>
								</g>
							</g>
							<g>
								<g>
									<g>
										<rect x="364.68" y="224.24" class="st13" width="9.58" height="9.58"/>
										
											<pattern  id="SVGID_53_" xlink:href="#Diagonal_Lines_2" patternTransform="matrix(0.144 0 0 0.0852 -6180.6318 -6678.5166)">
										</pattern>
										<rect x="364.68" y="224.24" class="st71" width="9.58" height="9.58"/>
									</g>
									<g>
										<rect x="375.56" y="224.24" class="st13" width="9.58" height="9.58"/>
										
											<pattern  id="SVGID_54_" xlink:href="#Diagonal_Lines_2" patternTransform="matrix(0.144 0 0 0.0852 -6180.1123 -6678.5166)">
										</pattern>
										<rect x="375.56" y="224.24" class="st72" width="9.58" height="9.58"/>
									</g>
								</g>
							</g>
						</g>
					</g>
				</g>
				<g>
					<g>
						<g>
							<rect x="362.07" y="133.2" class="st11" width="25.18" height="25.18"/>
						</g>
						<g>
							<polygon class="st11" points="387.25,158.39 362.07,158.39 362.07,133.2 							"/>
						</g>
						<rect x="363.23" y="134.36" class="st12" width="22.87" height="22.87"/>
						<g>
							<g>
								<g>
									<g>
										<rect x="364.43" y="135.6" class="st13" width="9.58" height="9.58"/>
										
											<pattern  id="SVGID_55_" xlink:href="#Diagonal_Lines_2" patternTransform="matrix(0.144 0 0 0.0852 -6180.8818 -6693.5601)">
										</pattern>
										<rect x="364.43" y="135.6" class="st73" width="9.58" height="9.58"/>
									</g>
									<g>
										<rect x="375.31" y="135.6" class="st13" width="9.58" height="9.58"/>
										
											<pattern  id="SVGID_56_" xlink:href="#Diagonal_Lines_2" patternTransform="matrix(0.144 0 0 0.0852 -6180.3623 -6693.5601)">
										</pattern>
										<rect x="375.31" y="135.6" class="st74" width="9.58" height="9.58"/>
									</g>
								</g>
							</g>
							<g>
								<g>
									<g>
										<rect x="364.43" y="146.41" class="st13" width="9.58" height="9.58"/>
										
											<pattern  id="SVGID_57_" xlink:href="#Diagonal_Lines_2" patternTransform="matrix(0.144 0 0 0.0852 -6180.8818 -6682.7495)">
										</pattern>
										<rect x="364.43" y="146.41" class="st75" width="9.58" height="9.58"/>
									</g>
									<g>
										<rect x="375.31" y="146.41" class="st13" width="9.58" height="9.58"/>
										
											<pattern  id="SVGID_58_" xlink:href="#Diagonal_Lines_2" patternTransform="matrix(0.144 0 0 0.0852 -6180.3623 -6682.7495)">
										</pattern>
										<rect x="375.31" y="146.41" class="st76" width="9.58" height="9.58"/>
									</g>
								</g>
							</g>
						</g>
					</g>
				</g>
				<g>
					<g>
						<g>
							<rect x="362.32" y="283.37" class="st11" width="25.18" height="25.18"/>
						</g>
						<g>
							<polygon class="st11" points="387.5,308.55 362.32,308.55 362.32,283.37 							"/>
						</g>
						<rect x="363.48" y="284.53" class="st12" width="22.87" height="22.87"/>
						<g>
							<g>
								<g>
									<g>
										<rect x="364.68" y="285.77" class="st13" width="9.58" height="9.58"/>
										
											<pattern  id="SVGID_59_" xlink:href="#Diagonal_Lines_2" patternTransform="matrix(0.144 0 0 0.0852 -6180.6318 -6616.9937)">
										</pattern>
										<rect x="364.68" y="285.77" class="st77" width="9.58" height="9.58"/>
									</g>
									<g>
										<rect x="375.56" y="285.77" class="st13" width="9.58" height="9.58"/>
										
											<pattern  id="SVGID_60_" xlink:href="#Diagonal_Lines_2" patternTransform="matrix(0.144 0 0 0.0852 -6180.1123 -6616.9937)">
										</pattern>
										<rect x="375.56" y="285.77" class="st78" width="9.58" height="9.58"/>
									</g>
								</g>
							</g>
							<g>
								<g>
									<g>
										<rect x="364.68" y="296.58" class="st13" width="9.58" height="9.58"/>
										
											<pattern  id="SVGID_61_" xlink:href="#Diagonal_Lines_2" patternTransform="matrix(0.144 0 0 0.0852 -6180.6318 -6606.1831)">
										</pattern>
										<rect x="364.68" y="296.58" class="st79" width="9.58" height="9.58"/>
									</g>
									<g>
										<rect x="375.56" y="296.58" class="st13" width="9.58" height="9.58"/>
										
											<pattern  id="SVGID_62_" xlink:href="#Diagonal_Lines_2" patternTransform="matrix(0.144 0 0 0.0852 -6180.1123 -6606.1831)">
										</pattern>
										<rect x="375.56" y="296.58" class="st80" width="9.58" height="9.58"/>
									</g>
								</g>
							</g>
						</g>
					</g>
				</g>
			</g>
			<g>
				<g>
					<path class="st12" d="M334.77,410.37L334.77,410.37c-0.56,0-1.01-0.45-1.01-1.01v-10.59c0-0.56,0.45-1.01,1.01-1.01l0,0
						c0.56,0,1.01,0.45,1.01,1.01v10.59C335.78,409.92,335.32,410.37,334.77,410.37z"/>
					<g>
						<ellipse class="st6" cx="334.76" cy="389.95" rx="9.29" ry="10.95"/>
						<path class="st81" d="M337.38,379.49c1.68,1.98,2.71,4.71,2.71,7.73c0,6.05-4.16,10.95-9.29,10.95c-0.91,0-1.78-0.2-2.62-0.49
							c1.68,1.99,4.01,3.22,6.58,3.22c5.13,0,9.29-4.9,9.29-10.95C344.05,384.98,341.23,380.83,337.38,379.49z"/>
					</g>
				</g>
				<path class="st7" d="M337.8,424.2h-6.07c-1.16,0-2.11-0.94-2.11-2.11v-14.46h10.29v14.46
					C339.91,423.26,338.96,424.2,337.8,424.2z"/>
				<rect x="329.02" y="407.63" class="st82" width="11.5" height="1.64"/>
				<rect x="329.62" y="409.27" class="st83" width="10.29" height="0.46"/>
			</g>
			<g>
				<g>
					<path class="st12" d="M166.51,410.37L166.51,410.37c-0.56,0-1.01-0.45-1.01-1.01v-10.59c0-0.56,0.45-1.01,1.01-1.01l0,0
						c0.56,0,1.01,0.45,1.01,1.01v10.59C167.53,409.92,167.07,410.37,166.51,410.37z"/>
					<g>
						<ellipse class="st6" cx="166.51" cy="389.95" rx="9.29" ry="10.95"/>
						<path class="st81" d="M169.13,379.49c1.68,1.98,2.71,4.71,2.71,7.73c0,6.05-4.16,10.95-9.29,10.95c-0.91,0-1.78-0.2-2.62-0.49
							c1.68,1.99,4.01,3.22,6.58,3.22c5.13,0,9.29-4.9,9.29-10.95C175.8,384.98,172.98,380.83,169.13,379.49z"/>
					</g>
				</g>
				<path class="st7" d="M169.55,424.2h-6.07c-1.16,0-2.11-0.94-2.11-2.11v-14.46h10.29v14.46
					C171.66,423.26,170.71,424.2,169.55,424.2z"/>
				<rect x="160.77" y="407.63" class="st82" width="11.5" height="1.64"/>
				<rect x="161.37" y="409.27" class="st83" width="10.29" height="0.46"/>
			</g>
			<g>
				<path class="st36" d="M287.57,320.85c-5.67-10.63-20.32-18.19-37.51-18.19s-31.84,7.56-37.51,18.19
					c-0.05,0.08-0.1,0.17-0.15,0.27v16.84h75.32v-16.84C287.67,321.02,287.62,320.93,287.57,320.85z M283.56,336.62h-67v-14.69
					c0.04-0.09,0.08-0.16,0.13-0.24c5.05-9.27,18.08-15.86,33.37-15.86c15.29,0,28.32,6.59,33.37,15.86
					c0.05,0.08,0.09,0.15,0.13,0.24V336.62z"/>
			</g>
			<g>
				<path class="st12" d="M234.37,140.66c-7.35,0-11.92-5.27-11.92-13.75s4.57-13.75,11.92-13.75c4.06,0,7.27,1.62,9.33,4.5v-3.96
					h37.42l-0.99,6.62h-8.25v3.09h7.38V130h-7.38v3.46h9.07v6.66H263.9v-21.48l-0.27,1.95h-5.73v19.53h-7.98v-19.53h-4.7
					c0.67,1.82,1.03,3.95,1.03,6.32C246.26,135.39,241.7,140.66,234.37,140.66z M234.37,119.88c-1.1,0-3.68,0-3.68,7.03
					c0,7.03,2.58,7.03,3.68,7.03c1.18,0,3.64,0,3.64-7.03C238.01,119.88,235.55,119.88,234.37,119.88z M281.76,140.11v-26.42h7.98
					v19.43h9.49l-0.95,6.99H281.76z M213.71,140.11v-10.25h-4.75v10.25h-7.98v-26.42h7.98v9.24h4.75v-9.24h7.98v26.42H213.71z"/>
				<path class="st84" d="M234.37,114.65c6.43,0,10.39,4.4,10.39,12.25c0,7.68-3.96,12.25-10.39,12.25
					c-6.43,0-10.42-4.43-10.42-12.25C223.94,119.26,227.94,114.65,234.37,114.65 M234.37,135.43c3.35,0,5.14-2.4,5.14-8.53
					c0-6.13-1.79-8.53-5.14-8.53c-3.32,0-5.18,2.4-5.18,8.53C229.19,133.03,231.12,135.43,234.37,135.43 M288.24,115.19v19.43h9.27
					l-0.54,3.99h-13.71v-23.42H288.24 M279.37,115.19l-0.54,3.62h-8.46v6.09h7.38v3.59h-7.38v6.46h9.07v3.66H265.4v-23.42H279.37
					 M262.86,115.19l-0.54,3.89h-5.92v19.53h-4.98v-19.53h-6.23v-3.89H262.86 M220.19,115.19v23.42h-4.98v-10.25h-7.75v10.25h-4.98
					v-23.42h4.98v9.24h7.75v-9.24H220.19 M234.37,111.65c-4.99,0-8.89,2.24-11.18,6.1v-2.55v-3h-3h-4.98h-3v3v6.24h-1.75v-6.24v-3
					h-3h-4.98h-3v3v23.42v3h3h4.98h3v-3v-7.25h1.75v7.25v3h3h4.98h3v-3v-2.43c2.26,3.81,6.14,5.98,11.18,5.98
					c8.13,0,13.39-5.99,13.39-15.25c0-1.73-0.17-3.34-0.51-4.82h1.17v16.53v3h3h4.98h3v-3v-16.53h2.92h0.08v16.53v3h3h14.04h0.82h3
					h13.71h2.62l0.35-2.6l0.54-3.99l0.46-3.4h-3.43h-6.27v-16.43v-3h-3h-4.98h-0.41h-3.48h-13.07h-3.45h-17.67h-3v1.78
					C240.09,112.46,237.44,111.65,234.37,111.65L234.37,111.65z M234.37,132.43c-0.65,0-2.18,0-2.18-5.53
					c0-5.53,1.42-5.53,2.18-5.53c0.75,0,2.14,0,2.14,5.53C236.51,132.43,235.12,132.43,234.37,132.43L234.37,132.43z M273.37,121.82
					h5.46h1.43v0.09h-2.51h-4.38V121.82L273.37,121.82z M273.37,131.5h4.38h2.51v0.46h-0.82h-6.07V131.5L273.37,131.5z"/>
				<path class="st85" d="M234.37,114.65c6.43,0,10.39,4.4,10.39,12.25c0,7.68-3.96,12.25-10.39,12.25
					c-6.43,0-10.42-4.43-10.42-12.25C223.94,119.26,227.94,114.65,234.37,114.65 M234.37,135.43c3.35,0,5.14-2.4,5.14-8.53
					c0-6.13-1.79-8.53-5.14-8.53c-3.32,0-5.18,2.4-5.18,8.53C229.19,133.03,231.12,135.43,234.37,135.43 M288.24,115.19v19.43h9.27
					l-0.54,3.99h-13.71v-23.42H288.24 M279.37,115.19l-0.54,3.62h-8.46v6.09h7.38v3.59h-7.38v6.46h9.07v3.66H265.4v-23.42H279.37
					 M262.86,115.19l-0.54,3.89h-5.92v19.53h-4.98v-19.53h-6.23v-3.89H262.86 M220.19,115.19v23.42h-4.98v-10.25h-7.75v10.25h-4.98
					v-23.42h4.98v9.24h7.75v-9.24H220.19 M234.37,113.65c-7.05,0-11.42,5.08-11.42,13.25c0,8.3,4.27,13.25,11.42,13.25
					c7.03,0,11.39-5.08,11.39-13.25c0-2.62-0.43-4.91-1.23-6.82h0.67h5.23v18.53v1h1h4.98h1v-1v-18.53h4.92h0.87l0.12-0.86
					l0.54-3.89l0.16-1.14h-1.15h-17.67h-1v1v3.89v0.29C242.35,115.7,238.95,113.65,234.37,113.65L234.37,113.65z M234.37,134.43
					c-1.14,0-4.18,0-4.18-7.53c0-6.67,2.23-7.53,4.18-7.53c2.05,0,4.14,0.89,4.14,7.53C238.51,133.54,236.42,134.43,234.37,134.43
					L234.37,134.43z M289.24,114.19h-1h-4.98h-1v1v23.42v1h1h13.71h0.87l0.12-0.87l0.54-3.99l0.15-1.13h-1.14h-8.27v-18.43V114.19
					L289.24,114.19z M280.53,114.19h-1.16H265.4h-1v1v23.42v1h1h14.04h1v-1v-3.66v-1h-1h-8.07v-4.46h6.38h1v-1v-3.59v-1h-1h-6.38
					v-4.09h7.46h0.86l0.13-0.85l0.54-3.62L280.53,114.19L280.53,114.19z M221.19,114.19h-1h-4.98h-1v1v8.24h-5.75v-8.24v-1h-1h-4.98
					h-1v1v23.42v1h1h4.98h1v-1v-9.25h5.75v9.25v1h1h4.98h1v-1v-23.42V114.19L221.19,114.19z"/>
			</g>
			<g>
				<g>
					<g>
						<g>
							<rect x="199.4" y="71" class="st11" width="10.95" height="10.95"/>
						</g>
						<g>
							<polygon class="st11" points="210.35,81.95 199.4,81.95 199.4,71 							"/>
						</g>
					</g>
					<rect x="201.41" y="73.01" class="st9" width="6.93" height="6.93"/>
				</g>
				<g>
					<g>
						<g>
							<rect x="221.99" y="71" class="st11" width="10.95" height="10.95"/>
						</g>
						<g>
							<polygon class="st11" points="232.94,81.95 221.99,81.95 221.99,71 							"/>
						</g>
					</g>
					<rect x="224" y="73.01" class="st9" width="6.93" height="6.93"/>
				</g>
				<g>
					<g>
						<g>
							<rect x="244.59" y="71" class="st11" width="10.95" height="10.95"/>
						</g>
						<g>
							<polygon class="st11" points="255.54,81.95 244.59,81.95 244.59,71 							"/>
						</g>
					</g>
					<rect x="246.6" y="73.01" class="st9" width="6.93" height="6.93"/>
				</g>
				<g>
					<g>
						<g>
							<rect x="267.18" y="71" class="st11" width="10.95" height="10.95"/>
						</g>
						<g>
							<polygon class="st11" points="278.13,81.95 267.18,81.95 267.18,71 							"/>
						</g>
					</g>
					<rect x="269.19" y="73.01" class="st9" width="6.93" height="6.93"/>
				</g>
				<g>
					<g>
						<g>
							<rect x="289.78" y="71" class="st11" width="10.95" height="10.95"/>
						</g>
						<g>
							<polygon class="st11" points="300.73,81.95 289.78,81.95 289.78,71 							"/>
						</g>
					</g>
					<rect x="291.79" y="73.01" class="st9" width="6.93" height="6.93"/>
				</g>
			</g>
		</g>
		<rect x="87.06" y="424.08" class="st82" width="326" height="8.5"/>
		<g>
			<rect x="87.06" y="431.58" class="st86" width="326" height="0.63"/>
		</g>
		<g>
			<rect x="87.06" y="424.14" class="st86" width="326" height="1"/>
		</g>
	</g>
</g>
<g id="Designed_By_Freepik">
	<g>
		<g id="XMLID_1_">
			<g id="XMLID_24_">
				<path id="XMLID_32_" class="st87" d="M260.1,464.28c-0.43,0.44-0.8,0.93-1.11,1.45l-0.47-0.24c-0.07-0.3-0.35-0.5-0.66-0.47
					c-0.33,0.04-0.57,0.34-0.53,0.67c0.04,0.33,0.34,0.57,0.67,0.53c0.07-0.01,0.13-0.03,0.18-0.05l0.45,0.23
					c-0.25,0.55-0.43,1.14-0.54,1.74l0.75,0.13c0.23-1.31,0.85-2.51,1.79-3.47L260.1,464.28z"/>
				<path id="XMLID_31_" class="st87" d="M265.59,461.98c-0.17,0-0.34,0.01-0.51,0.02l-0.07-0.63c0.19-0.15,0.3-0.39,0.27-0.64
					c-0.05-0.39-0.4-0.67-0.8-0.63c-0.39,0.05-0.67,0.4-0.63,0.8c0.03,0.25,0.19,0.46,0.4,0.56l0.07,0.62
					c-0.71,0.12-1.4,0.33-2.06,0.65l0.33,0.68c0.93-0.45,1.94-0.67,3-0.67c0.5,0,0.99,0.05,1.48,0.16l0.16-0.74
					C266.69,462.04,266.14,461.98,265.59,461.98z"/>
				<path id="XMLID_30_" class="st87" d="M272.19,464.53c0.33-0.04,0.57-0.34,0.53-0.67c-0.04-0.33-0.34-0.57-0.67-0.53
					c-0.31,0.04-0.54,0.3-0.53,0.61l-0.42,0.36c-0.42-0.43-0.89-0.81-1.41-1.14l-0.4,0.64c1.13,0.71,2.02,1.73,2.56,2.93l0.69-0.31
					c-0.25-0.55-0.57-1.07-0.94-1.54l0.4-0.35C272.06,464.53,272.13,464.54,272.19,464.53z"/>
				<path id="XMLID_29_" class="st87" d="M265.04,472.19c-0.39,0.02-0.77,0.03-1.16,0.03c-0.88,0-1.73-0.06-2.48-0.18
					c-0.39-0.06-0.85-0.15-1.27-0.29c1.05,1.86,3.07,3.13,5.39,3.13c2.86,0,5.26-1.92,5.95-4.5c-0.68,0.45-1.51,0.83-2.46,1.12
					C267.84,471.87,266.46,472.11,265.04,472.19z"/>
				<path id="XMLID_25_" class="st87" d="M265.59,463.5c-3.35,0-6.08,2.67-6.08,5.94c0,0.43,0.05,0.85,0.14,1.26
					c0.67,0.48,2.71,0.89,5.35,0.73c2.88-0.17,5.3-0.96,6.67-2.16c-0.01-0.2-0.02-0.39-0.05-0.58
					C271.24,465.73,268.65,463.5,265.59,463.5z M263.43,470.01c-1.02,0-1.85-0.83-1.85-1.85c0-1.02,0.83-1.85,1.85-1.85
					c1.02,0,1.85,0.83,1.85,1.85C265.28,469.18,264.45,470.01,263.43,470.01z M268.17,469.1c-0.75,0-1.36-0.61-1.36-1.36
					c0-0.75,0.61-1.36,1.36-1.36c0.75,0,1.36,0.61,1.36,1.36C269.53,468.49,268.92,469.1,268.17,469.1z"/>
			</g>
			<path id="XMLID_22_" class="st87" d="M281.6,465.37c-0.29-0.12-0.81-0.31-1.38-0.24c-0.55,0.07-0.84,0.34-0.84,1.01V467h2.23
				v1.72h-2.23v5.45h-1.93v-5.45h-1.34V467h1.34v-0.89c0-1.68,0.9-2.78,2.57-2.78c0.64,0,1.16,0.12,1.59,0.31L281.6,465.37z"/>
			<path id="XMLID_20_" class="st87" d="M286.3,468.7c-0.18-0.03-0.36-0.05-0.53-0.05c-0.9,0-1.51,0.55-1.51,1.61v3.91h-1.93V467
				h1.87v0.78c0.45-0.67,1.14-0.98,2.02-0.98c0.41,0,0.85,0.13,1.09,0.34L286.3,468.7z"/>
			<path id="XMLID_16_" class="st87" d="M293.97,470.58c0,0.22-0.01,0.49-0.04,0.65h-5.08c0.21,1.04,0.93,1.49,1.84,1.49
				c0.62,0,1.3-0.25,1.81-0.69l1.13,1.24c-0.81,0.75-1.85,1.09-3.06,1.09c-2.2,0-3.72-1.5-3.72-3.75c0-2.26,1.48-3.8,3.63-3.8
				C292.54,466.81,293.96,468.34,293.97,470.58z M288.85,469.91h3.18c-0.18-0.92-0.73-1.44-1.56-1.44
				C289.55,468.47,289.02,469.02,288.85,469.91z"/>
			<path id="XMLID_13_" class="st87" d="M301.62,470.58c0,0.22-0.01,0.49-0.04,0.65h-5.08c0.21,1.04,0.93,1.49,1.84,1.49
				c0.62,0,1.3-0.25,1.81-0.69l1.13,1.24c-0.81,0.75-1.85,1.09-3.06,1.09c-2.2,0-3.72-1.5-3.72-3.75c0-2.26,1.48-3.8,3.63-3.8
				C300.2,466.81,301.61,468.34,301.62,470.58z M296.5,469.91h3.18c-0.18-0.92-0.73-1.44-1.56-1.44
				C297.21,468.47,296.67,469.02,296.5,469.91z"/>
			<path id="XMLID_8_" class="st87" d="M309.96,470.58c0,2.15-1.49,3.77-3.47,3.77c-0.96,0-1.64-0.38-2.11-0.93v3.71h-1.92V467h1.89
				v0.79c0.47-0.58,1.15-0.98,2.14-0.98C308.47,466.81,309.96,468.43,309.96,470.58z M304.29,470.58c0,1.13,0.75,1.98,1.84,1.98
				c1.14,0,1.85-0.88,1.85-1.98c0-1.1-0.71-1.98-1.85-1.98C305.03,468.61,304.29,469.45,304.29,470.58z"/>
			<path id="XMLID_5_" class="st87" d="M313.07,464.65c0,0.7-0.54,1.23-1.24,1.23c-0.7,0-1.23-0.53-1.23-1.23
				c0-0.7,0.53-1.24,1.23-1.24C312.53,463.41,313.07,463.96,313.07,464.65z M312.81,474.17h-1.93V467h1.93V474.17z"/>
			<path id="XMLID_2_" class="st87" d="M316.03,469.55l2.7-2.55h2.37l-3.48,3.38l3.5,3.8h-2.38l-2.72-2.9v2.9h-1.93v-10.66h1.93
				V469.55z"/>
		</g>
		<g>
			<path class="st87" d="M184.41,474.11v-1.05c-0.53,0.72-1.39,1.23-2.39,1.23c-1.85,0-3.15-1.41-3.15-3.71
				c0-2.26,1.29-3.72,3.15-3.72c0.95,0,1.82,0.47,2.39,1.25v-3.76h1.1v9.77H184.41z M184.41,472.19v-3.21
				c-0.4-0.62-1.24-1.14-2.12-1.14c-1.42,0-2.27,1.17-2.27,2.74c0,1.57,0.85,2.72,2.27,2.72
				C183.17,473.3,184.02,472.8,184.41,472.19z"/>
			<path class="st87" d="M186.93,470.56c0-2.05,1.46-3.71,3.49-3.71c2.14,0,3.4,1.67,3.4,3.79v0.28h-5.73
				c0.09,1.33,1.03,2.45,2.55,2.45c0.81,0,1.63-0.32,2.18-0.89l0.53,0.72c-0.7,0.7-1.65,1.08-2.81,1.08
				C188.44,474.28,186.93,472.77,186.93,470.56z M190.4,467.77c-1.51,0-2.26,1.27-2.31,2.36h4.64
				C192.72,469.07,192.01,467.77,190.4,467.77z"/>
			<path class="st87" d="M194.61,473.17l0.57-0.79c0.47,0.54,1.36,1.01,2.33,1.01c1.08,0,1.67-0.51,1.67-1.22
				c0-1.71-4.38-0.66-4.38-3.28c0-1.1,0.95-2.04,2.64-2.04c1.2,0,2.05,0.45,2.62,1.03l-0.51,0.76c-0.42-0.51-1.2-0.89-2.11-0.89
				c-0.97,0-1.57,0.48-1.57,1.11c0,1.55,4.38,0.53,4.38,3.28c0,1.19-0.95,2.14-2.78,2.14C196.31,474.28,195.32,473.93,194.61,473.17
				z"/>
			<path class="st87" d="M201.48,465.29c0-0.41,0.34-0.75,0.73-0.75c0.41,0,0.75,0.34,0.75,0.75c0,0.41-0.34,0.73-0.75,0.73
				C201.81,466.02,201.48,465.7,201.48,465.29z M201.67,474.11v-7.07h1.1v7.07H201.67z"/>
			<path class="st87" d="M204.58,475.92l0.56-0.82c0.59,0.7,1.29,0.97,2.3,0.97c1.17,0,2.27-0.57,2.27-2.12v-1.01
				c-0.51,0.72-1.38,1.26-2.37,1.26c-1.85,0-3.15-1.38-3.15-3.66c0-2.27,1.29-3.68,3.15-3.68c0.95,0,1.8,0.47,2.37,1.25v-1.07h1.1
				v6.87c0,2.34-1.64,3.08-3.37,3.08C206.24,476.98,205.42,476.74,204.58,475.92z M209.71,472.07v-3.09
				c-0.38-0.62-1.23-1.14-2.11-1.14c-1.42,0-2.27,1.13-2.27,2.7c0,1.55,0.85,2.7,2.27,2.7
				C208.48,473.23,209.33,472.69,209.71,472.07z"/>
			<path class="st87" d="M217.41,474.11v-4.63c0-1.24-0.63-1.64-1.58-1.64c-0.86,0-1.68,0.53-2.09,1.1v5.17h-1.1v-7.07h1.1v1.03
				c0.5-0.59,1.46-1.2,2.52-1.2c1.48,0,2.26,0.75,2.26,2.29v4.97H217.41z"/>
			<path class="st87" d="M219.93,470.56c0-2.05,1.46-3.71,3.49-3.71c2.14,0,3.4,1.67,3.4,3.79v0.28h-5.73
				c0.09,1.33,1.03,2.45,2.55,2.45c0.81,0,1.63-0.32,2.18-0.89l0.53,0.72c-0.7,0.7-1.66,1.08-2.81,1.08
				C221.44,474.28,219.93,472.77,219.93,470.56z M223.4,467.77c-1.51,0-2.26,1.27-2.31,2.36h4.64
				C225.72,469.07,225.02,467.77,223.4,467.77z"/>
			<path class="st87" d="M233.35,474.11v-1.05c-0.53,0.72-1.39,1.23-2.39,1.23c-1.85,0-3.15-1.41-3.15-3.71
				c0-2.26,1.29-3.72,3.15-3.72c0.95,0,1.82,0.47,2.39,1.25v-3.76h1.1v9.77H233.35z M233.35,472.19v-3.21
				c-0.4-0.62-1.25-1.14-2.12-1.14c-1.42,0-2.27,1.17-2.27,2.74c0,1.57,0.85,2.72,2.27,2.72C232.1,473.3,232.95,472.8,233.35,472.19
				z"/>
			<path class="st87" d="M239.69,474.11v-9.77h1.1v3.76c0.57-0.78,1.42-1.25,2.39-1.25c1.85,0,3.15,1.46,3.15,3.72
				c0,2.3-1.3,3.71-3.15,3.71c-1,0-1.86-0.51-2.39-1.23v1.05H239.69z M242.9,473.3c1.44,0,2.29-1.16,2.29-2.72
				c0-1.57-0.85-2.74-2.29-2.74c-0.86,0-1.73,0.53-2.11,1.14v3.21C241.17,472.8,242.04,473.3,242.9,473.3z"/>
			<path class="st87" d="M247.53,475.88c0.16,0.07,0.43,0.12,0.6,0.12c0.48,0,0.81-0.16,1.05-0.75l0.47-1.07l-2.96-7.15h1.19
				l2.36,5.8l2.34-5.8h1.2l-3.54,8.51c-0.42,1.03-1.14,1.42-2.08,1.44c-0.23,0-0.6-0.04-0.81-0.1L247.53,475.88z"/>
		</g>
	</g>
</g>
</svg>
