<?xml version="1.0" encoding="utf-8"?>
<!-- Generator: Adobe Illustrator 24.0.1, SVG Export Plug-In . SVG Version: 6.00 Build 0)  -->
<svg version="1.1" xmlns="http://www.w3.org/2000/svg" xmlns:xlink="http://www.w3.org/1999/xlink" x="0px" y="0px"
	 viewBox="0 0 500 500" style="enable-background:new 0 0 500 500;" xml:space="preserve">
<style type="text/css">
	.st0{fill:#FFFFFF;}
	.st1{fill:#EAEEFC;}
	.st2{fill:#DDE4F7;}
	.st3{fill:#FDF5F7;}
	.st4{fill:#063760;}
	.st5{fill:#B3C3E7;}
	.st6{fill:#608DCE;}
	.st7{fill:#072F48;}
	.st8{opacity:0.18;}
	.st9{fill:#F9AAB0;}
	.st10{fill:#F97384;}
	.st11{fill:#FDE7EA;}
	.st12{fill:#96EEF7;}
	.st13{fill:#E25D73;}
	.st14{fill:#1D262D;}
</style>
<g id="BACKGROUND">
	<rect class="st0" width="500" height="500"/>
</g>
<g id="OBJECTS">
	<g>
		<g>
			<ellipse class="st1" cx="244.18" cy="400.15" rx="58.83" ry="19.99"/>
		</g>
		<g>
			<g>
				<ellipse class="st2" cx="186.5" cy="365.4" rx="85.23" ry="14.76"/>
			</g>
			<g>
				<ellipse class="st2" cx="300.5" cy="380.15" rx="85.23" ry="20.84"/>
			</g>
		</g>
		<g>
			<path class="st3" d="M340.05,90.32c-1.64-5.28-7.16-8.19-12.32-6.51c-0.12,0.04-0.23,0.09-0.34,0.13
				c-0.03-0.88-0.17-1.77-0.45-2.65c-1.33-4.27-5.19-6.99-9.35-6.99c0-1.01-0.15-2.03-0.46-3.04c-1.64-5.28-7.16-8.19-12.32-6.51
				c-1.81,0.59-3.33,1.67-4.48,3.05c-1.94-4.75-7.14-7.28-12.02-5.69c-4.26,1.38-6.94,5.46-6.83,9.81c-0.06,0-0.13-0.01-0.19-0.01
				c-1.76-3.83-6.06-5.84-10.11-4.52c-3.37,1.09-5.58,4.16-5.81,7.56c-1.27,0-2.57,0.19-3.84,0.61c-3.75,1.22-6.55,4.07-7.89,7.54
				c-3.18-3.91-8.47-5.68-13.5-4.04c-3.01,0.98-5.4,3-6.92,5.56c-1.99-1.22-4.46-1.61-6.85-0.83c-4.41,1.43-6.84,6.25-5.44,10.75
				c1.4,4.5,6.11,6.99,10.52,5.56c0.86-0.28,1.65-0.69,2.35-1.21c0.52,0.73,1.12,1.4,1.77,2c-0.3,1.41-0.26,2.91,0.2,4.39
				c1.4,4.5,6.11,6.99,10.52,5.56c0.14-0.05,0.27-0.1,0.41-0.16c2.47,6.12,9.16,9.38,15.44,7.34c1.42-0.46,2.7-1.16,3.82-2.03
				c1.6,4.15,6.1,6.38,10.32,5.01c0.21-0.07,0.41-0.15,0.6-0.23c-0.09,1.09,0.02,2.23,0.36,3.34c1.4,4.5,6.11,6.99,10.52,5.56
				c1.58-0.51,2.89-1.46,3.88-2.67c0.02,0.08,0.04,0.15,0.06,0.23c1.4,4.5,6.11,6.99,10.52,5.56c4.41-1.43,6.84-6.25,5.44-10.75
				c-0.07-0.23-0.16-0.45-0.25-0.67c2.07,1.5,4.78,2.03,7.38,1.18c4.06-1.32,6.44-5.51,5.69-9.69c1.89,0.63,3.98,0.69,6.01,0.03
				c4.27-1.39,6.95-5.49,6.83-9.85c0.12-0.04,0.25-0.06,0.37-0.1C338.84,101.24,341.69,95.6,340.05,90.32z"/>
		</g>
		<g>
			<path class="st3" d="M209.08,121.67c-2.19-6.41-9.54-9.96-16.42-7.92c-0.15,0.05-0.3,0.11-0.45,0.16
				c-0.04-1.07-0.23-2.15-0.59-3.22c-2.19-6.41-9.54-9.96-16.42-7.92c-5.12,1.52-8.53,5.71-9.04,10.39
				c-0.35,0.08-0.69,0.17-1.04,0.27c-0.13,0.04-0.25,0.08-0.37,0.12c-3.85-6.22-11.95-9.33-19.6-7.07c-1.24,0.37-2.4,0.86-3.48,1.46
				c-0.09-0.47-0.2-0.95-0.36-1.42c-1.87-5.47-8.14-8.5-14.02-6.76c-0.74,0.22-1.44,0.51-2.09,0.85c-2.62-4-7.9-5.98-12.9-4.49
				c-4.02,1.19-6.81,4.32-7.57,7.93c-2.65-0.47-5.46-0.35-8.22,0.46c-3.02,0.9-5.58,2.52-7.53,4.59c-3.86-1.94-8.53-2.48-13.05-1.14
				c-4.01,1.19-7.2,3.65-9.22,6.75c-2.65-1.49-5.95-1.95-9.13-1.01c-5.87,1.74-9.12,7.59-7.25,13.07c1.11,3.26,3.79,5.64,7.01,6.67
				c-2.1,2.6-2.87,6.08-1.73,9.42c1.81,5.31,7.77,8.3,13.49,6.89c-2.19,2.99-2.94,6.85-1.67,10.57c2.19,6.41,9.54,9.96,16.42,7.92
				c6.35-1.88,10.06-7.86,8.88-13.81c3.76,1.73,8.2,2.16,12.51,0.89c1.89-0.56,3.59-1.4,5.08-2.46c2.14,5.05,8.12,7.76,13.75,6.09
				c0.28-0.08,0.54-0.18,0.8-0.28c-0.12,1.33,0.02,2.7,0.48,4.06c1.87,5.47,8.14,8.5,14.02,6.76c2.1-0.62,3.86-1.78,5.17-3.25
				c0.03,0.09,0.05,0.18,0.08,0.28c1.87,5.47,8.14,8.5,14.02,6.76c5.87-1.74,9.12-7.59,7.25-13.07c-0.1-0.28-0.21-0.55-0.33-0.82
				c2.76,1.82,6.36,2.47,9.84,1.44c5.41-1.61,8.58-6.7,7.58-11.78c2.52,0.77,5.3,0.84,8.01,0.04c5.69-1.69,9.26-6.67,9.1-11.97
				c0.17-0.04,0.33-0.07,0.5-0.12C207.46,134.94,211.26,128.08,209.08,121.67z"/>
		</g>
		<g>
			<g>
				<g>
					<path class="st2" d="M281.95,270.07c0,0,24.89-102.05,23.56-165.23h6.46c-0.12,55.74,14.49,112.73,32.31,163.97L281.95,270.07z
						"/>
				</g>
				<g>
					<ellipse class="st2" cx="308.23" cy="106.89" rx="45.34" ry="9.12"/>
				</g>
				<g>
					<ellipse class="st2" cx="308.23" cy="89.69" rx="37.13" ry="8.07"/>
				</g>
				<g>
					<path class="st2" d="M334.52,75.68c0,3.28-11.77,5.94-26.29,5.94c-14.52,0-26.29-2.66-26.29-5.94c0-3.28,11.77-5.94,26.29-5.94
						C322.75,69.75,334.52,72.41,334.52,75.68z"/>
				</g>
				<g>
					<ellipse class="st0" cx="285.02" cy="89.81" rx="1.92" ry="1.93"/>
				</g>
				<g>
					<ellipse class="st0" cx="292.76" cy="89.81" rx="1.92" ry="1.93"/>
				</g>
				<g>
					<ellipse class="st0" cx="300.5" cy="89.81" rx="1.92" ry="1.93"/>
				</g>
				<g>
					<ellipse class="st0" cx="308.24" cy="89.81" rx="1.92" ry="1.93"/>
				</g>
				<g>
					<path class="st0" d="M317.9,89.81c0,1.07-0.86,1.93-1.92,1.93c-1.06,0-1.92-0.87-1.92-1.93c0-1.07,0.86-1.93,1.92-1.93
						C317.04,87.88,317.9,88.75,317.9,89.81z"/>
				</g>
				<g>
					<ellipse class="st0" cx="323.71" cy="89.81" rx="1.92" ry="1.93"/>
				</g>
				<g>
					<path class="st0" d="M333.37,89.81c0,1.07-0.86,1.93-1.92,1.93c-1.06,0-1.92-0.87-1.92-1.93c0-1.07,0.86-1.93,1.92-1.93
						C332.51,87.88,333.37,88.75,333.37,89.81z"/>
				</g>
				<g>
					<polygon class="st2" points="311.14,74.55 309.22,48.65 305.33,74.55 					"/>
				</g>
			</g>
			<g>
				<g>
					<g>
						<rect x="109.95" y="134.62" class="st2" width="63.79" height="179.43"/>
					</g>
					<g>
						<g>
							<rect x="119.48" y="150.59" class="st0" width="12.4" height="19.76"/>
						</g>
						<g>
							<rect x="135.72" y="150.59" class="st0" width="12.4" height="19.76"/>
						</g>
						<g>
							<rect x="151.96" y="150.59" class="st0" width="12.4" height="19.76"/>
						</g>
					</g>
					<g>
						<g>
							<rect x="119.48" y="181.12" class="st0" width="12.4" height="19.76"/>
						</g>
						<g>
							<rect x="135.72" y="181.12" class="st0" width="12.4" height="19.76"/>
						</g>
						<g>
							<rect x="151.96" y="181.12" class="st0" width="12.4" height="19.76"/>
						</g>
					</g>
					<g>
						<g>
							<rect x="119.48" y="211.66" class="st0" width="12.4" height="19.76"/>
						</g>
						<g>
							<rect x="135.72" y="211.66" class="st0" width="12.4" height="19.76"/>
						</g>
						<g>
							<rect x="151.96" y="211.66" class="st0" width="12.4" height="19.76"/>
						</g>
					</g>
					<g>
						<g>
							<rect x="119.48" y="242.19" class="st0" width="12.4" height="19.76"/>
						</g>
						<g>
							<rect x="135.72" y="242.19" class="st0" width="12.4" height="19.76"/>
						</g>
						<g>
							<rect x="151.96" y="242.19" class="st0" width="12.4" height="19.76"/>
						</g>
					</g>
					<g>
						<g>
							<rect x="119.48" y="272.72" class="st0" width="12.4" height="19.76"/>
						</g>
						<g>
							<rect x="135.72" y="272.72" class="st0" width="12.4" height="19.76"/>
						</g>
						<g>
							<rect x="151.96" y="272.72" class="st0" width="12.4" height="19.76"/>
						</g>
					</g>
				</g>
				<g>
					<polygon class="st2" points="109.95,134.62 125.17,125.18 162.78,125.18 173.75,134.62 					"/>
				</g>
			</g>
			<g>
				<g>
					<rect x="315.37" y="167.58" class="st2" width="80.18" height="178.07"/>
				</g>
				<g>
					<g>
						<rect x="324.89" y="183.44" class="st0" width="12.4" height="19.61"/>
					</g>
					<g>
						<rect x="341.14" y="183.44" class="st0" width="12.4" height="19.61"/>
					</g>
					<g>
						<rect x="357.38" y="183.44" class="st0" width="12.4" height="19.61"/>
					</g>
					<g>
						<rect x="373.62" y="183.44" class="st0" width="12.4" height="19.61"/>
					</g>
				</g>
				<g>
					<g>
						<rect x="324.89" y="213.74" class="st0" width="12.4" height="19.61"/>
					</g>
					<g>
						<rect x="341.14" y="213.74" class="st0" width="12.4" height="19.61"/>
					</g>
					<g>
						<rect x="357.38" y="213.74" class="st0" width="12.4" height="19.61"/>
					</g>
					<g>
						<rect x="373.62" y="213.74" class="st0" width="12.4" height="19.61"/>
					</g>
				</g>
				<g>
					<g>
						<rect x="324.89" y="244.04" class="st0" width="12.4" height="19.61"/>
					</g>
					<g>
						<rect x="341.14" y="244.04" class="st0" width="12.4" height="19.61"/>
					</g>
					<g>
						<rect x="357.38" y="244.04" class="st0" width="12.4" height="19.61"/>
					</g>
					<g>
						<rect x="373.62" y="244.04" class="st0" width="12.4" height="19.61"/>
					</g>
				</g>
				<g>
					<g>
						<rect x="324.89" y="274.34" class="st0" width="12.4" height="19.61"/>
					</g>
					<g>
						<rect x="341.14" y="274.34" class="st0" width="12.4" height="19.61"/>
					</g>
					<g>
						<rect x="357.38" y="274.34" class="st0" width="12.4" height="19.61"/>
					</g>
					<g>
						<rect x="373.62" y="274.34" class="st0" width="12.4" height="19.61"/>
					</g>
				</g>
				<g>
					<g>
						<rect x="324.89" y="304.65" class="st0" width="12.4" height="19.61"/>
					</g>
					<g>
						<rect x="341.14" y="304.65" class="st0" width="12.4" height="19.61"/>
					</g>
					<g>
						<rect x="357.38" y="304.65" class="st0" width="12.4" height="19.61"/>
					</g>
					<g>
						<rect x="373.62" y="304.65" class="st0" width="12.4" height="19.61"/>
					</g>
				</g>
			</g>
		</g>
		<g>
			<g>
				<g>
					<polygon class="st4" points="153.63,346.96 156.64,366.55 325.94,366.55 329.18,346.96 					"/>
				</g>
				<g>
					<polygon class="st5" points="329.18,346.96 268.3,346.96 260.23,205.87 351.56,205.87 					"/>
				</g>
				<g>
					<g>
						<g>
							<rect x="316.27" y="217.05" class="st4" width="13.67" height="15.83"/>
							<path class="st0" d="M330.51,233.46H315.7v-16.98h14.81V233.46z M316.84,232.31h12.52v-14.69h-12.52V232.31z"/>
						</g>
						<g>
							<rect x="296.52" y="217.05" class="st4" width="13.67" height="15.83"/>
							<path class="st0" d="M310.76,233.46h-14.81v-16.98h14.81V233.46z M297.09,232.31h12.52v-14.69h-12.52V232.31z"/>
						</g>
					</g>
					<g>
						<g>
							<rect x="316.27" y="238.23" class="st4" width="13.67" height="15.83"/>
							<path class="st0" d="M330.51,254.63H315.7v-16.98h14.81V254.63z M316.84,253.49h12.52V238.8h-12.52V253.49z"/>
						</g>
						<g>
							<rect x="296.52" y="238.23" class="st4" width="13.67" height="15.83"/>
							<path class="st0" d="M310.76,254.63h-14.81v-16.98h14.81V254.63z M297.09,253.49h12.52V238.8h-12.52V253.49z"/>
						</g>
					</g>
					<g>
						<g>
							<rect x="316.27" y="259.41" class="st4" width="13.67" height="15.83"/>
							<path class="st0" d="M330.51,275.81H315.7v-16.98h14.81V275.81z M316.84,274.67h12.52v-14.69h-12.52V274.67z"/>
						</g>
						<g>
							<rect x="296.52" y="259.41" class="st4" width="13.67" height="15.83"/>
							<path class="st0" d="M310.76,275.81h-14.81v-16.98h14.81V275.81z M297.09,274.67h12.52v-14.69h-12.52V274.67z"/>
						</g>
					</g>
					<g>
						<g>
							<rect x="316.27" y="280.58" class="st4" width="13.67" height="15.83"/>
							<path class="st0" d="M330.51,296.99H315.7v-16.98h14.81V296.99z M316.84,295.84h12.52v-14.69h-12.52V295.84z"/>
						</g>
						<g>
							<rect x="296.52" y="280.58" class="st4" width="13.67" height="15.83"/>
							<path class="st0" d="M310.76,296.99h-14.81v-16.98h14.81V296.99z M297.09,295.84h12.52v-14.69h-12.52V295.84z"/>
						</g>
					</g>
					<g>
						<g>
							<rect x="316.27" y="301.76" class="st4" width="13.67" height="15.83"/>
							<path class="st0" d="M330.51,318.16H315.7v-16.98h14.81V318.16z M316.84,317.02h12.52v-14.69h-12.52V317.02z"/>
						</g>
						<g>
							<rect x="296.52" y="301.76" class="st4" width="13.67" height="15.83"/>
							<path class="st0" d="M310.76,318.16h-14.81v-16.98h14.81V318.16z M297.09,317.02h12.52v-14.69h-12.52V317.02z"/>
						</g>
					</g>
					<g>
						<rect x="316.27" y="227.18" class="st0" width="13.67" height="0.64"/>
					</g>
					<g>
						<rect x="316.27" y="248.05" class="st0" width="13.67" height="0.64"/>
					</g>
					<g>
						<rect x="316.27" y="269.56" class="st0" width="13.67" height="0.64"/>
					</g>
					<g>
						<rect x="316.27" y="290.76" class="st0" width="13.67" height="0.64"/>
					</g>
					<g>
						<rect x="316.27" y="312.27" class="st0" width="13.67" height="0.64"/>
					</g>
					<g>
						<rect x="296.52" y="312.27" class="st0" width="13.67" height="0.64"/>
					</g>
					<g>
						<rect x="296.17" y="290.76" class="st0" width="13.67" height="0.64"/>
					</g>
					<g>
						<rect x="296.17" y="269.55" class="st0" width="13.67" height="0.64"/>
					</g>
					<g>
						<rect x="296.17" y="248.37" class="st0" width="13.67" height="0.64"/>
					</g>
					<g>
						<rect x="296.17" y="227.19" class="st0" width="13.67" height="0.64"/>
					</g>
				</g>
				<g>
					<polygon class="st5" points="206.44,346.96 153.63,346.96 138.95,209.36 216.03,209.36 					"/>
				</g>
				<g>
					<g>
						<g>
							<rect x="176.72" y="219.61" class="st4" width="13.67" height="15.83"/>
							<path class="st0" d="M190.96,236.02h-14.81v-16.98h14.81V236.02z M177.3,234.87h12.52v-14.69H177.3V234.87z"/>
						</g>
						<g>
							<rect x="156.98" y="219.61" class="st4" width="13.67" height="15.83"/>
							<path class="st0" d="M171.22,236.02H156.4v-16.98h14.81V236.02z M157.55,234.87h12.52v-14.69h-12.52V234.87z"/>
						</g>
					</g>
					<g>
						<g>
							<rect x="176.72" y="240.79" class="st4" width="13.67" height="15.83"/>
							<path class="st0" d="M190.96,257.19h-14.81v-16.98h14.81V257.19z M177.3,256.05h12.52v-14.69H177.3V256.05z"/>
						</g>
						<g>
							<rect x="156.98" y="240.79" class="st4" width="13.67" height="15.83"/>
							<path class="st0" d="M171.22,257.19H156.4v-16.98h14.81V257.19z M157.55,256.05h12.52v-14.69h-12.52V256.05z"/>
						</g>
					</g>
					<g>
						<g>
							<rect x="176.72" y="261.96" class="st4" width="13.67" height="15.83"/>
							<path class="st0" d="M190.96,278.37h-14.81v-16.98h14.81V278.37z M177.3,277.22h12.52v-14.69H177.3V277.22z"/>
						</g>
						<g>
							<rect x="156.98" y="261.96" class="st4" width="13.67" height="15.83"/>
							<path class="st0" d="M171.22,278.37H156.4v-16.98h14.81V278.37z M157.55,277.22h12.52v-14.69h-12.52V277.22z"/>
						</g>
					</g>
					<g>
						<g>
							<rect x="176.72" y="283.14" class="st4" width="13.67" height="15.83"/>
							<path class="st0" d="M190.96,299.55h-14.81v-16.98h14.81V299.55z M177.3,298.4h12.52v-14.69H177.3V298.4z"/>
						</g>
						<g>
							<rect x="156.98" y="283.14" class="st4" width="13.67" height="15.83"/>
							<path class="st0" d="M171.22,299.55H156.4v-16.98h14.81V299.55z M157.55,298.4h12.52v-14.69h-12.52V298.4z"/>
						</g>
					</g>
					<g>
						<g>
							<rect x="176.72" y="304.32" class="st4" width="13.67" height="15.83"/>
							<path class="st0" d="M190.96,320.72h-14.81v-16.98h14.81V320.72z M177.3,319.58h12.52v-14.69H177.3V319.58z"/>
						</g>
						<g>
							<rect x="156.98" y="304.32" class="st4" width="13.67" height="15.83"/>
							<path class="st0" d="M171.22,320.72H156.4v-16.98h14.81V320.72z M157.55,319.58h12.52v-14.69h-12.52V319.58z"/>
						</g>
					</g>
					<g>
						<rect x="176.72" y="229.73" class="st0" width="13.67" height="0.64"/>
					</g>
					<g>
						<rect x="176.72" y="250.61" class="st0" width="13.67" height="0.64"/>
					</g>
					<g>
						<rect x="176.72" y="272.12" class="st0" width="13.67" height="0.64"/>
					</g>
					<g>
						<rect x="176.72" y="293.31" class="st0" width="13.67" height="0.64"/>
					</g>
					<g>
						<rect x="176.72" y="314.83" class="st0" width="13.67" height="0.64"/>
					</g>
					<g>
						<rect x="156.98" y="314.83" class="st0" width="13.67" height="0.64"/>
					</g>
					<g>
						<rect x="156.63" y="293.31" class="st0" width="13.67" height="0.64"/>
					</g>
					<g>
						<rect x="156.63" y="272.1" class="st0" width="13.67" height="0.64"/>
					</g>
					<g>
						<rect x="156.63" y="250.93" class="st0" width="13.67" height="0.64"/>
					</g>
					<g>
						<rect x="156.63" y="229.75" class="st0" width="13.67" height="0.64"/>
					</g>
				</g>
				<g>
					<polygon class="st6" points="292.18,346.96 192.3,346.96 182.05,170.51 304.67,170.51 					"/>
				</g>
				<g>
					<polygon class="st4" points="286.71,202.05 201.35,205.87 196.89,188.39 289.83,188.39 					"/>
					<path class="st0" d="M200.91,206.47l-4.75-18.65h94.39l-3.38,14.79L200.91,206.47z M197.63,188.96l4.16,16.32l84.46-3.79
						l2.86-12.54H197.63z"/>
				</g>
				<g>
					<polygon class="st4" points="286.71,259.38 201.35,263.21 196.89,245.72 289.83,245.72 					"/>
					<path class="st0" d="M200.91,263.8l-4.75-18.65h94.39l-3.38,14.79l-0.43,0.02L200.91,263.8z M197.63,246.29l4.16,16.32
						l84.46-3.79l2.86-12.54H197.63z"/>
				</g>
				<g>
					<polygon class="st4" points="200.01,230.71 285.37,234.54 289.83,217.05 196.89,217.05 					"/>
					<path class="st0" d="M285.81,235.13l-86.26-3.87l-3.38-14.79h94.39L285.81,235.13z M200.47,230.16l84.46,3.79l4.16-16.32
						h-91.49L200.47,230.16z"/>
				</g>
				<g>
					<polygon class="st4" points="200.01,290.08 285.37,293.9 289.83,276.42 196.89,276.42 					"/>
					<path class="st0" d="M285.81,294.5l-0.46-0.02l-85.8-3.85l-3.38-14.79h94.39L285.81,294.5z M200.47,289.52l84.46,3.79
						l4.16-16.32h-91.49L200.47,289.52z"/>
				</g>
				<g>
					<rect x="208.04" y="315.59" class="st4" width="68.87" height="31.36"/>
					<path class="st5" d="M278.18,348.23h-71.41v-33.9h71.41V348.23z M209.31,345.69h66.33v-28.82h-66.33V345.69z"/>
				</g>
				<g>
					<rect x="206.78" y="346.96" class="st5" width="71.4" height="6.53"/>
				</g>
				<g>
					<rect x="202.81" y="353.49" class="st5" width="79.36" height="6.53"/>
				</g>
				<g>
					<rect x="199.33" y="360.02" class="st5" width="86.32" height="6.53"/>
				</g>
				<g>
					<rect x="240.32" y="316.23" class="st5" width="2.79" height="29.56"/>
				</g>
				<g>
					<polygon class="st7" points="284.56,170.51 202.81,170.51 199.33,154.15 285.65,149.52 					"/>
				</g>
				<g class="st8">
					<polygon class="st5" points="217.62,346.06 222.87,316.49 232.47,316.49 225.04,346.06 					"/>
				</g>
				<g class="st8">
					<polygon class="st5" points="252.8,345.79 258.06,316.23 267.65,316.23 260.23,345.79 					"/>
				</g>
				<g class="st8">
					<polygon class="st5" points="228.09,345.79 235.08,316.49 237.91,316.49 230.79,345.79 					"/>
				</g>
				<g class="st8">
					<polygon class="st5" points="263.57,345.92 270.57,316.63 273.39,316.63 266.27,345.92 					"/>
				</g>
				<g>
					<g>
						<path class="st0" d="M230.11,157.53v7.68h-2.1v-3.01h-2.56v3.01h-2.1v-7.68h2.1v2.84h2.56v-2.84H230.11z"/>
					</g>
					<g>
						<path class="st0" d="M236.82,165.28c-0.55,0-1.04-0.11-1.49-0.34c-0.45-0.22-0.83-0.52-1.15-0.88
							c-0.32-0.36-0.57-0.78-0.74-1.25c-0.18-0.47-0.26-0.95-0.26-1.45c0-0.51,0.09-0.99,0.27-1.46c0.18-0.47,0.44-0.88,0.77-1.24
							c0.33-0.36,0.72-0.64,1.17-0.86c0.45-0.21,0.94-0.32,1.48-0.32c0.55,0,1.04,0.11,1.49,0.34c0.45,0.22,0.83,0.52,1.15,0.89
							c0.32,0.37,0.57,0.79,0.74,1.26c0.17,0.47,0.26,0.95,0.26,1.44c0,0.51-0.09,0.99-0.27,1.46c-0.18,0.47-0.44,0.88-0.76,1.23
							c-0.32,0.36-0.71,0.64-1.16,0.86C237.85,165.17,237.36,165.28,236.82,165.28z M235.3,161.38c0,0.26,0.03,0.51,0.09,0.75
							c0.06,0.24,0.16,0.46,0.29,0.64c0.13,0.19,0.29,0.34,0.49,0.45c0.19,0.12,0.42,0.17,0.68,0.17c0.27,0,0.5-0.06,0.69-0.18
							c0.19-0.12,0.35-0.27,0.47-0.47c0.12-0.19,0.21-0.41,0.27-0.65c0.06-0.25,0.09-0.49,0.09-0.75c0-0.26-0.03-0.51-0.1-0.75
							c-0.06-0.24-0.16-0.45-0.29-0.64c-0.13-0.18-0.29-0.33-0.48-0.44c-0.19-0.11-0.42-0.17-0.68-0.17c-0.27,0-0.49,0.06-0.68,0.17
							c-0.19,0.12-0.35,0.27-0.47,0.46c-0.13,0.19-0.22,0.41-0.28,0.65C235.33,160.88,235.3,161.13,235.3,161.38z"/>
					</g>
					<g>
						<path class="st0" d="M249.36,159.37h-2.2v5.85h-2.1v-5.85h-2.21v-1.84h6.51V159.37z"/>
					</g>
					<g>
						<path class="st0" d="M257.73,163.37v1.84h-5.45v-7.68h5.35v1.84h-3.25v1.08h2.78v1.71h-2.78v1.21H257.73z"/>
					</g>
					<g>
						<path class="st0" d="M260.86,165.21v-7.68h2.1v5.84h3.47v1.84H260.86z"/>
					</g>
				</g>
				<g>
					<rect x="206.78" y="351.73" class="st6" width="71.4" height="1.76"/>
				</g>
				<g>
					<rect x="202.81" y="358.01" class="st6" width="79.36" height="2.01"/>
				</g>
				<g>
					<rect x="199.33" y="364.81" class="st6" width="86.32" height="1.74"/>
				</g>
			</g>
			<g>
				<g>
					<path class="st9" d="M331.7,315.55c4.58-18.67,22.85-35.66,44.59-37.34c3.25-0.25,7.36,0.26,8.58,3.04
						c0.7,1.59,0.1,3.4-1.05,4.7c-1.14,1.29-2.76,2.16-4.34,3.01c-5.26,2.81-10.51,5.63-15.77,8.44c1.82-0.17,3.73-0.33,5.43,0.34
						c1.7,0.67,3.04,2.49,2.37,4c-0.44,0.99-1.56,1.55-2.61,2.04c-3.08,1.43-6.18,2.83-9.3,4.19c1.44-0.02,2.94-0.04,4.25,0.55
						c1.31,0.58,2.33,1.97,1.88,3.19c-0.37,1-1.53,1.53-2.6,1.96c-3.3,1.34-6.59,2.67-9.89,4.01c1.79-0.71,3.78,1.4,3.48,3.16
						c-0.3,1.75-1.92,3-3.43,4.1c-4.95,3.57-9.9,7.14-14.85,10.71C328.47,342.83,330.73,319.52,331.7,315.55z"/>
				</g>
				<g>
					<g>
						<g>
							<path class="st10" d="M334.05,334.86c4.65-24.28,21.89-44.45,45.24-52.62c0.38-0.13,0.22-0.75-0.17-0.61
								c-23.56,8.24-41,28.56-45.69,53.06C333.36,335.09,333.98,335.26,334.05,334.86L334.05,334.86z"/>
						</g>
					</g>
					<g>
						<g>
							<path class="st10" d="M342.7,312.11c7.76-5.32,16.48-8.84,25.75-10.4c0.4-0.07,0.23-0.68-0.17-0.61
								c-9.32,1.57-18.11,5.12-25.9,10.47C342.05,311.79,342.36,312.34,342.7,312.11L342.7,312.11z"/>
						</g>
					</g>
					<g>
						<g>
							<path class="st10" d="M338.03,321.25c6.45-5.14,13.84-8.43,21.65-10.95c0.39-0.13,0.22-0.74-0.17-0.61
								c-7.92,2.56-15.38,5.9-21.93,11.12C337.26,321.06,337.72,321.5,338.03,321.25L338.03,321.25z"/>
						</g>
					</g>
					<g>
						<g>
							<path class="st10" d="M335.3,329.28c5.04-3.06,10.36-5.53,15.95-7.4c0.39-0.13,0.22-0.74-0.17-0.61
								c-5.64,1.89-11.01,4.37-16.1,7.46C334.63,328.95,334.95,329.5,335.3,329.28L335.3,329.28z"/>
						</g>
					</g>
				</g>
				<g>
					<path class="st11" d="M340.13,336.16c10.06-16.36,32.63-26.9,53.83-21.8c3.17,0.76,6.93,2.51,7.24,5.54
						c0.18,1.73-0.95,3.27-2.43,4.15c-1.48,0.88-3.28,1.21-5.05,1.53c-5.86,1.06-11.72,2.12-17.58,3.18c1.78,0.4,3.65,0.84,5.07,2
						c1.42,1.16,2.14,3.31,1.04,4.54c-0.72,0.81-1.96,1-3.11,1.14c-3.37,0.41-6.74,0.79-10.13,1.12c1.38,0.42,2.81,0.87,3.88,1.83
						c1.07,0.96,1.62,2.59,0.82,3.61c-0.66,0.84-1.93,0.98-3.07,1.07c-3.55,0.26-7.09,0.51-10.64,0.77c1.92-0.12,3.17,2.5,2.35,4.08
						c-0.82,1.58-2.74,2.27-4.52,2.84c-5.8,1.87-11.6,3.74-17.4,5.61C328.73,361.12,337.99,339.63,340.13,336.16z"/>
				</g>
				<g>
					<g>
						<g>
							<path class="st0" d="M337.24,356c10.9-22.16,32.87-36.99,57.54-38.62c0.41-0.03,0.41-0.66,0-0.64
								c-24.89,1.65-47.09,16.57-58.09,38.94C336.51,356.04,337.06,356.37,337.24,356L337.24,356z"/>
						</g>
					</g>
					<g>
						<g>
							<path class="st0" d="M351.6,336.38c8.89-3.05,18.22-4.11,27.57-3.14c0.41,0.04,0.4-0.59,0-0.64
								c-9.41-0.98-18.8,0.1-27.74,3.17C351.05,335.9,351.21,336.51,351.6,336.38L351.6,336.38z"/>
						</g>
					</g>
					<g>
						<g>
							<path class="st0" d="M344.68,343.94c7.58-3.23,15.58-4.42,23.76-4.77c0.41-0.02,0.41-0.65,0-0.64
								c-8.31,0.36-16.39,1.58-24.08,4.86C343.98,343.55,344.31,344.1,344.68,343.94L344.68,343.94z"/>
						</g>
					</g>
					<g>
						<g>
							<path class="st0" d="M339.91,350.96c5.67-1.6,11.44-2.56,17.33-2.87c0.41-0.02,0.41-0.66,0-0.64
								c-5.94,0.31-11.77,1.27-17.5,2.89C339.35,350.46,339.52,351.07,339.91,350.96L339.91,350.96z"/>
						</g>
					</g>
				</g>
				<g>
					<path class="st10" d="M321.97,345.75c4.58-18.67,22.85-35.66,44.59-37.34c3.25-0.25,7.36,0.26,8.58,3.04
						c0.7,1.59,0.1,3.4-1.05,4.7c-1.14,1.29-2.76,2.16-4.34,3.01c-5.26,2.81-10.51,5.63-15.76,8.44c1.82-0.17,3.73-0.33,5.43,0.34
						s3.04,2.49,2.37,4c-0.44,0.99-1.56,1.55-2.61,2.04c-3.08,1.43-6.18,2.83-9.3,4.19c1.44-0.02,2.94-0.04,4.25,0.55
						c1.31,0.58,2.33,1.97,1.88,3.19c-0.37,1-1.53,1.53-2.6,1.96c-3.3,1.34-6.59,2.67-9.89,4.01c1.79-0.71,3.78,1.4,3.48,3.16
						c-0.3,1.75-1.92,3-3.43,4.1c-4.95,3.57-9.9,7.14-14.85,10.71C318.74,373.03,321,349.72,321.97,345.75z"/>
				</g>
				<g>
					<g>
						<g>
							<path class="st0" d="M325.57,366.24c3.65-24.45,20.03-45.33,43.03-54.46c0.38-0.15,0.21-0.76-0.17-0.61
								c-23.2,9.21-39.8,30.22-43.48,54.9C324.9,366.47,325.51,366.64,325.57,366.24L325.57,366.24z"/>
						</g>
					</g>
					<g>
						<g>
							<path class="st0" d="M333.27,343.14c7.53-5.63,16.1-9.53,25.3-11.47c0.4-0.08,0.23-0.7-0.17-0.61
								c-9.25,1.95-17.88,5.86-25.45,11.53C332.63,342.83,332.94,343.38,333.27,343.14L333.27,343.14z"/>
						</g>
					</g>
					<g>
						<g>
							<path class="st0" d="M328.98,352.47c6.23-5.41,13.48-9,21.17-11.85c0.38-0.14,0.22-0.75-0.17-0.61
								c-7.79,2.89-15.14,6.53-21.45,12.01C328.22,352.29,328.67,352.74,328.98,352.47L328.98,352.47z"/>
						</g>
					</g>
					<g>
						<g>
							<path class="st0" d="M326.58,360.61c4.91-3.27,10.12-5.96,15.63-8.06c0.38-0.14,0.21-0.76-0.17-0.61
								c-5.56,2.12-10.82,4.82-15.78,8.12C325.92,360.29,326.24,360.84,326.58,360.61L326.58,360.61z"/>
						</g>
					</g>
				</g>
			</g>
			<g>
				<g>
					<path class="st9" d="M149.56,315.73c-4.58-18.67-22.85-35.65-44.59-37.34c-3.25-0.25-7.36,0.26-8.58,3.04
						c-0.7,1.59-0.1,3.4,1.05,4.7c1.14,1.29,2.76,2.16,4.34,3.01c5.25,2.81,10.51,5.63,15.76,8.44c-1.82-0.17-3.73-0.33-5.44,0.34
						c-1.7,0.67-3.04,2.49-2.37,4c0.44,0.99,1.56,1.55,2.61,2.04c3.08,1.43,6.18,2.83,9.3,4.19c-1.44-0.02-2.94-0.04-4.25,0.55
						c-1.31,0.58-2.33,1.97-1.88,3.19c0.37,1,1.53,1.53,2.6,1.96c3.3,1.34,6.59,2.67,9.89,4.01c-1.79-0.71-3.78,1.4-3.48,3.16
						c0.3,1.75,1.92,3,3.43,4.1c4.95,3.57,9.9,7.14,14.85,10.71C152.79,343,150.54,319.69,149.56,315.73z"/>
				</g>
				<g>
					<g>
						<g>
							<path class="st10" d="M147.82,334.87c-4.69-24.5-22.13-44.82-45.69-53.06c-0.39-0.14-0.55,0.48-0.17,0.61
								c23.36,8.17,40.6,28.34,45.24,52.62C147.29,335.44,147.9,335.27,147.82,334.87L147.82,334.87z"/>
						</g>
					</g>
					<g>
						<g>
							<path class="st10" d="M138.88,311.73c-7.8-5.35-16.58-8.9-25.9-10.47c-0.4-0.07-0.57,0.54-0.17,0.61
								c9.28,1.56,17.99,5.08,25.75,10.4C138.9,312.51,139.22,311.96,138.88,311.73L138.88,311.73z"/>
						</g>
					</g>
					<g>
						<g>
							<path class="st10" d="M143.68,320.97c-6.54-5.22-14.01-8.55-21.93-11.12c-0.39-0.13-0.56,0.49-0.17,0.61
								c7.8,2.53,15.2,5.81,21.65,10.95C143.55,321.68,144,321.23,143.68,320.97L143.68,320.97z"/>
						</g>
					</g>
					<g>
						<g>
							<path class="st10" d="M146.29,328.91c-5.08-3.09-10.46-5.58-16.1-7.46c-0.39-0.13-0.56,0.48-0.17,0.61
								c5.59,1.87,10.91,4.34,15.95,7.4C146.32,329.67,146.64,329.12,146.29,328.91L146.29,328.91z"/>
						</g>
					</g>
				</g>
				<g>
					<path class="st10" d="M141.13,336.33c-10.06-16.36-32.63-26.9-53.83-21.8c-3.17,0.76-6.93,2.51-7.24,5.54
						c-0.18,1.73,0.95,3.27,2.43,4.15c1.48,0.88,3.28,1.21,5.05,1.53c5.86,1.06,11.72,2.12,17.58,3.18c-1.78,0.4-3.65,0.84-5.07,2
						c-1.42,1.16-2.14,3.31-1.04,4.54c0.72,0.81,1.96,1,3.11,1.14c3.37,0.41,6.74,0.79,10.13,1.12c-1.38,0.42-2.81,0.87-3.88,1.83
						c-1.07,0.96-1.62,2.59-0.82,3.61c0.66,0.84,1.93,0.98,3.07,1.07c3.55,0.26,7.09,0.51,10.64,0.77c-1.92-0.12-3.17,2.5-2.35,4.08
						c0.82,1.58,2.74,2.27,4.52,2.84c5.8,1.87,11.6,3.74,17.4,5.61C152.53,361.3,143.27,339.8,141.13,336.33z"/>
				</g>
				<g>
					<g>
						<g>
							<path class="st0" d="M144.58,355.85c-11-22.37-33.2-37.29-58.09-38.94c-0.41-0.03-0.41,0.61,0,0.64
								c24.67,1.63,46.64,16.46,57.54,38.62C144.21,356.54,144.76,356.22,144.58,355.85L144.58,355.85z"/>
						</g>
					</g>
					<g>
						<g>
							<path class="st0" d="M129.83,335.94c-8.95-3.07-18.33-4.14-27.74-3.17c-0.4,0.04-0.41,0.68,0,0.64
								c9.35-0.97,18.68,0.09,27.57,3.14C130.05,336.68,130.22,336.07,129.83,335.94L129.83,335.94z"/>
						</g>
					</g>
					<g>
						<g>
							<path class="st0" d="M136.91,343.57c-7.69-3.28-15.78-4.5-24.08-4.86c-0.41-0.02-0.41,0.62,0,0.64
								c8.19,0.35,16.18,1.54,23.76,4.77C136.96,344.28,137.28,343.73,136.91,343.57L136.91,343.57z"/>
						</g>
					</g>
					<g>
						<g>
							<path class="st0" d="M141.52,350.52c-5.72-1.62-11.56-2.58-17.5-2.89c-0.41-0.02-0.41,0.61,0,0.64
								c5.88,0.31,11.66,1.27,17.33,2.87C141.74,351.24,141.91,350.63,141.52,350.52L141.52,350.52z"/>
						</g>
					</g>
				</g>
				<g>
					<path class="st11" d="M159.29,345.93c-4.58-18.67-22.85-35.65-44.59-37.34c-3.25-0.25-7.36,0.26-8.58,3.04
						c-0.7,1.59-0.1,3.4,1.05,4.7c1.14,1.29,2.76,2.16,4.34,3.01c5.25,2.81,10.51,5.63,15.76,8.44c-1.82-0.17-3.73-0.33-5.43,0.34
						c-1.7,0.67-3.04,2.49-2.37,4c0.44,0.99,1.56,1.55,2.61,2.04c3.08,1.43,6.18,2.83,9.3,4.19c-1.44-0.02-2.94-0.04-4.25,0.55
						c-1.31,0.58-2.33,1.97-1.88,3.19c0.37,1,1.53,1.53,2.6,1.96c3.3,1.34,6.59,2.67,9.89,4.01c-1.79-0.71-3.78,1.4-3.48,3.16
						c0.3,1.75,1.92,3,3.43,4.1c4.95,3.57,9.9,7.14,14.85,10.71C162.52,373.2,160.26,349.89,159.29,345.93z"/>
				</g>
				<g>
					<g>
						<g>
							<path class="st0" d="M156.31,366.24c-3.68-24.68-20.28-45.69-43.48-54.9c-0.38-0.15-0.54,0.46-0.17,0.61
								c23,9.13,39.39,30.01,43.03,54.46C155.75,366.82,156.37,366.65,156.31,366.24L156.31,366.24z"/>
						</g>
					</g>
					<g>
						<g>
							<path class="st0" d="M148.31,342.76c-7.57-5.67-16.2-9.58-25.45-11.53c-0.4-0.08-0.57,0.53-0.17,0.61
								c9.2,1.94,17.77,5.83,25.3,11.47C148.32,343.56,148.64,343.01,148.31,342.76L148.31,342.76z"/>
						</g>
					</g>
					<g>
						<g>
							<path class="st0" d="M152.73,352.2c-6.31-5.48-13.66-9.13-21.45-12.01c-0.38-0.14-0.55,0.47-0.17,0.61
								c7.7,2.85,14.94,6.44,21.17,11.85C152.59,352.91,153.04,352.47,152.73,352.2L152.73,352.2z"/>
						</g>
					</g>
					<g>
						<g>
							<path class="st0" d="M155.01,360.23c-4.95-3.3-10.22-6-15.78-8.12c-0.38-0.15-0.55,0.47-0.17,0.61
								c5.51,2.1,10.72,4.79,15.63,8.06C155.03,361.01,155.35,360.46,155.01,360.23L155.01,360.23z"/>
						</g>
					</g>
				</g>
			</g>
			<g>
				<g>
					<path class="st12" d="M283.89,369.09c-1.28,0-2.42-0.9-2.68-2.21c-0.16-0.8-3.62-19.79,14.49-32.03
						c1.25-0.84,2.95-0.52,3.79,0.73c0.84,1.25,0.52,2.95-0.73,3.79c-15.15,10.24-12.22,26.3-12.19,26.46
						c0.29,1.48-0.68,2.91-2.16,3.2C284.24,369.07,284.06,369.09,283.89,369.09z"/>
				</g>
				<g>
					<path class="st10" d="M307.88,366.57c1.32-4.55,0.42-9.69-2.36-13.52c-0.97,1.49-1.93,2.98-2.9,4.48
						c0.37-4.22-0.15-8.51-1.51-12.52c-0.87,1.36-1.74,2.71-2.62,4.07c1.51-2.34-0.93-10.06-1.19-12.73
						c5.6-3.28,11.79-0.32,13.91,5.25C314.4,350,312.31,359.05,307.88,366.57z"/>
				</g>
				<g>
					<path class="st9" d="M324.53,351.74c-1.86-4.35-5.81-7.75-10.38-8.92c0.2,1.77,0.4,3.54,0.59,5.31
						c-2.39-3.49-5.5-6.48-9.09-8.7c0.18,1.6,0.37,3.21,0.55,4.81c-0.32-2.77-7.08-7.17-8.97-9.07c2.24-6.11,8.9-7.78,14.06-4.83
						C319.07,334.79,323.18,343.11,324.53,351.74z"/>
				</g>
				<g>
					<path class="st13" d="M273.73,350.98c1.93-4.32,5.93-7.66,10.52-8.75c-0.23,1.77-0.45,3.53-0.68,5.3
						c2.44-3.45,5.61-6.39,9.23-8.55c-0.21,1.6-0.42,3.2-0.63,4.8c0.36-2.76,7.2-7.06,9.11-8.92c-2.15-6.14-8.77-7.92-13.98-5.06
						C279.45,334.12,275.21,342.38,273.73,350.98z"/>
				</g>
				<g>
					<path class="st10" d="M270.58,326.18c4.43-1.62,9.6-1.06,13.58,1.48c-1.42,1.07-2.84,2.14-4.25,3.2
						c4.17-0.65,8.46-0.41,12.53,0.69c-1.29,0.96-2.58,1.93-3.87,2.89c2.22-1.66,10.05,0.27,12.72,0.35
						c2.89-5.83-0.46-11.84-6.13-13.6C286.61,318.55,277.75,321.25,270.58,326.18z"/>
				</g>
			</g>
			<g>
				<g>
					<path class="st12" d="M198.75,369.51c-0.17,0-0.35-0.02-0.53-0.05c-1.48-0.29-2.45-1.72-2.17-3.21
						c0.13-0.68,2.87-16.37-12.25-26.59c-1.26-0.85-1.58-2.55-0.74-3.81c0.85-1.25,2.55-1.59,3.81-0.74
						c18.19,12.29,14.72,31.36,14.56,32.17C201.19,368.6,200.04,369.51,198.75,369.51z"/>
				</g>
				<g>
					<path class="st10" d="M174.65,366.98c-1.33-4.57-0.42-9.74,2.37-13.58c0.97,1.5,1.94,3,2.91,4.5
						c-0.37-4.24,0.15-8.55,1.52-12.58c0.88,1.36,1.75,2.72,2.63,4.08c-1.51-2.35,0.93-10.11,1.19-12.79
						c-5.62-3.29-11.84-0.32-13.97,5.28C168.11,350.33,170.21,359.43,174.65,366.98z"/>
				</g>
				<g>
					<path class="st9" d="M157.93,352.08c1.87-4.37,5.83-7.78,10.42-8.96c-0.2,1.78-0.4,3.56-0.6,5.33c2.4-3.51,5.53-6.5,9.13-8.74
						c-0.19,1.61-0.37,3.22-0.56,4.83c0.32-2.78,7.11-7.21,9.01-9.11c-2.25-6.14-8.94-7.82-14.12-4.85
						C163.41,335.05,159.28,343.42,157.93,352.08z"/>
				</g>
				<g>
					<path class="st13" d="M208.96,351.32c-1.94-4.34-5.96-7.69-10.56-8.79c0.23,1.77,0.45,3.55,0.68,5.32
						c-2.45-3.47-5.63-6.42-9.27-8.59c0.21,1.61,0.42,3.21,0.63,4.82c-0.36-2.77-7.23-7.09-9.16-8.96
						c2.16-6.17,8.81-7.96,14.04-5.08C203.21,334.38,207.48,342.68,208.96,351.32z"/>
				</g>
				<g>
					<path class="st10" d="M212.12,326.4c-4.45-1.63-9.64-1.07-13.64,1.49c1.42,1.07,2.85,2.15,4.27,3.22
						c-4.18-0.65-8.5-0.41-12.59,0.7c1.29,0.97,2.59,1.94,3.88,2.9c-2.23-1.67-10.1,0.27-12.78,0.36c-2.9-5.85,0.46-11.9,6.16-13.66
						C196.03,318.75,204.92,321.45,212.12,326.4z"/>
				</g>
			</g>
		</g>
		<g>
			<path class="st11" d="M365.47,348.27c0.09-0.15,0.24-0.31,0.4-0.24c0.12,0.05,0.14,0.21,0.15,0.34c0.01,0.82-0.27,1.62-0.55,2.4
				c-0.05,0.15-0.11,0.31-0.22,0.43c-0.66,0.73-0.58-0.62-0.53-0.91C364.85,349.57,365.1,348.89,365.47,348.27z"/>
		</g>
		<g>
			<g>
				<g>
					<g>
						<g>
							<path class="st11" d="M240.92,376.25l-3.38,33.36l-0.13,1.29h-1.58l-0.03-1.05c0-0.11-0.01-0.22-0.01-0.32l-0.03-1.01
								l-0.98-32.27H240.92z"/>
						</g>
						<g>
							<polygon class="st11" points="247.29,376.25 243.79,408.55 243.7,409.41 243.59,410.34 242.19,410.89 242.16,409.94 
								242.1,407.88 241.14,376.25 							"/>
						</g>
						<g>
							<g>
								<path class="st11" d="M251.14,325.04c2.39,5.11,4.14,10.6,4.43,16.24c0.29,5.64-0.98,11.46-4.21,16.09
									c-0.41,0.59-0.87,1.18-1.48,1.55c-0.61,0.38-1.42,0.52-2.06,0.19c-0.64-0.33-1-1.2-0.64-1.83c0.44-0.74,1.5-0.73,2.26-1.14
									c0.96-0.51,1.37-1.65,1.63-2.71c1.98-7.84,0.09-16.57-4.95-22.88c-1.48-1.86-3.24-3.55-4.24-5.7
									c-0.93-2-1.13-4.34-0.56-6.47c0.3-1.11,1.14-2.65,2.52-2.53c1.09,0.1,2.25,1.52,2.95,2.27
									C248.65,320.13,249.99,322.57,251.14,325.04z"/>
							</g>
							<g>
								<path class="st11" d="M233.58,323.34c-5.47-1.31-10.83-3.34-15.4-6.62s-8.32-7.91-9.91-13.33c-0.2-0.69-0.37-1.42-0.29-2.13
									c0.09-0.72,0.48-1.44,1.13-1.74c0.65-0.3,1.56-0.04,1.82,0.64c0.31,0.81-0.36,1.64-0.52,2.49c-0.2,1.07,0.44,2.11,1.09,2.97
									c4.88,6.44,12.85,10.39,20.9,10.36c2.37-0.01,4.78-0.34,7.08,0.22c2.14,0.52,4.08,1.81,5.38,3.59
									c0.68,0.93,1.36,2.54,0.4,3.56c-0.75,0.8-2.58,0.83-3.6,0.9C238.95,324.44,236.22,323.97,233.58,323.34z"/>
							</g>
							<g>
								<path class="st12" d="M234.42,342.07c0,0-0.6,3.21-1.95,7.14c-1.35,3.93-1.45,29.13-1.45,29.13l18.36,3.55
									c0,0-1.38-29.2-2.68-34.9c-1.3-5.7-0.95-5.75-0.95-5.75h-11.27L234.42,342.07z"/>
							</g>
							<g>
								<path class="st11" d="M238.32,301.77c-0.54,0.85-0.86,1.83-1.16,2.8c-0.49,1.54-0.99,3.15-0.72,4.75
									c0.29,1.77,1.59,3.35,3.28,3.9c1.7,0.55,3.71,0,4.84-1.39c1.01-1.24,1.25-2.94,1.18-4.54c-0.08-1.61-0.45-3.23-1.3-4.59
									C242.94,300.32,240.11,298.97,238.32,301.77z"/>
							</g>
							<g>
								<path class="st11" d="M239.07,319.24c1.49,0.55,3.15,0.64,4.69,0.23c-0.42-2.32-0.44-4.71-0.04-7.03
									c0.04-0.23,0.07-0.5-0.1-0.67c-0.12-0.11-0.29-0.13-0.45-0.15c-2.03-0.18-3.64-0.88-3.36,1.63
									C239.87,313.71,239.89,319.54,239.07,319.24z"/>
							</g>
							<g>
								<path class="st0" d="M244.48,315.88c-2.73,0.77-4.88,0.46-6.59-0.63c-2.56,6.68-5.13,15.15-5.48,26.91l15.74,1.67
									C248.91,335.12,246.65,325.76,244.48,315.88z"/>
							</g>
							<g>
								<path class="st9" d="M237.08,302.77c0.66,1.53,2.42,1.37,2.8,3.08c0.48,2.11,0.1,4.45-0.93,6.34
									c-0.79,1.44-2,2.87-1.72,4.49c0.22,1.29,1.33,2.2,2.33,3.03c1.72,1.43,3.13,4.18,3.39,6.43c0.13,1.11-0.09,2.24-0.02,3.36
									c0.07,1.12,0.54,2.33,1.57,2.77c1.61,0.68,3.71-0.88,5.11,0.17c0.88,0.65,0.92,1.94,1.47,2.88
									c0.88,1.48,2.93,1.84,4.57,1.36c1.89-0.55,3.48-2.02,4.18-3.87c0.7-1.84,0.49-4.01-0.55-5.68c-0.85-1.36-2.2-2.41-2.74-3.92
									c-1.1-3.12,1.73-6.81,0.19-9.72c-1.29-2.44-4.91-2.81-6.24-5.22c-0.71-1.29-0.59-2.87-0.89-4.32
									c-0.45-2.17-1.93-4.09-3.9-5.07c-1.79-0.89-4.11-1-5.99-0.28C238.2,299.18,236.3,300.96,237.08,302.77z"/>
							</g>
							<g>
								<path class="st0" d="M214.02,299.75l-3.59,1.65c-0.3,0.14-0.65,0-0.78-0.29l-2.9-6.37c-0.14-0.3,0-0.65,0.29-0.79l3.59-1.65
									c0.3-0.14,0.65,0,0.78,0.29l2.9,6.37C214.45,299.26,214.32,299.62,214.02,299.75z"/>
								<path class="st9" d="M210.19,301.82c-0.11,0-0.22-0.02-0.33-0.06c-0.24-0.09-0.43-0.27-0.54-0.5l-2.9-6.37
									c-0.22-0.48-0.01-1.05,0.47-1.27l3.59-1.65c0.23-0.11,0.49-0.12,0.73-0.03c0.24,0.09,0.43,0.27,0.54,0.5l2.9,6.37
									c0.22,0.48,0.01,1.05-0.47,1.27h0l-3.59,1.65C210.46,301.79,210.33,301.82,210.19,301.82z M210.88,292.61
									c-0.03,0-0.06,0.01-0.09,0.02l-3.59,1.65c-0.11,0.05-0.17,0.19-0.11,0.31l2.9,6.37c0.03,0.06,0.07,0.1,0.13,0.12
									c0.06,0.02,0.12,0.02,0.17-0.01l3.59-1.65c0.11-0.05,0.17-0.19,0.11-0.31l-2.9-6.37c-0.03-0.06-0.07-0.1-0.13-0.12
									C210.93,292.62,210.91,292.61,210.88,292.61z"/>
							</g>
						</g>
						<g>
							<path class="st10" d="M237.45,409.84c-0.02,0.36-0.03,0.71-0.05,1.06c-0.01,0.1-0.01,0.2-0.01,0.3
								c-0.01,0.25-0.03,0.5-0.04,0.74c-0.01,0.16-0.02,0.33-0.1,0.46c-0.14,0.22-0.42,0.29-0.68,0.3
								c-0.87,0.04-1.72-0.31-2.42-0.83c-0.7-0.52-1.26-1.2-1.8-1.88c-0.13-0.17-0.27-0.35-0.32-0.56c-0.05-0.21,0.01-0.46,0.2-0.57
								c0.16-0.09,0.37-0.05,0.54,0.01c0.42,0.13,0.82,0.31,1.19,0.53v0.01c0.44,0.27,0.84,0.6,1.17,1c0.52,0.6,0.65,0.03,0.65-0.55
								c0-0.11-0.01-0.22-0.01-0.32C235.77,409.52,237.45,409.78,237.45,409.84z"/>
						</g>
						<g>
							<path class="st10" d="M243.77,411.12c0.01,0.15,0.01,0.3,0,0.45c-0.01,0.16-0.02,0.32-0.11,0.46
								c-0.13,0.22-0.42,0.29-0.68,0.3c-0.87,0.04-1.72-0.31-2.42-0.83c-0.7-0.52-1.26-1.2-1.81-1.88
								c-0.13-0.17-0.27-0.34-0.32-0.55c-0.05-0.21,0.01-0.46,0.2-0.57c0.16-0.09,0.36-0.05,0.54,0.01c0.29,0.08,0.56,0.2,0.82,0.34
								c0.58,0.29,1.12,0.71,1.55,1.21c0.37,0.43,0.54,0.25,0.61-0.09c0.05-0.23,0.05-0.53,0.03-0.79c0,0,1.51,0.2,1.51,0.26
								C243.66,409.96,243.75,410.55,243.77,411.12z"/>
						</g>
						<g>
							<path class="st11" d="M237.54,409.61l-0.13,1.29c-0.01,0.1-0.01,0.2-0.01,0.3c-0.04,0.04-0.08,0.08-0.13,0.11
								c-0.23,0.15-0.53,0.18-0.8,0.17c-0.99-0.05-2.49-0.92-2.5-2.07c0.44,0.27,0.84,0.6,1.17,1c0.52,0.6,0.65,0.03,0.65-0.55
								c0-0.11-0.01-0.22-0.01-0.32l-0.03-1.01c0.46,0.05,0.89,0.18,1.12,0.33C237.16,409.03,237.39,409.3,237.54,409.61z"/>
						</g>
						<g>
							<path class="st11" d="M243.77,411.12c-0.32,0.15-0.72,0.1-1.06,0.01c-0.69-0.18-1.38-0.46-1.9-0.96
								c-0.29-0.27-0.75-0.85-0.8-1.36c0.58,0.29,1.12,0.71,1.55,1.21c0.37,0.43,0.54,0.25,0.61-0.09l-0.06-2.06
								c0.12,0,0.23,0.01,0.31,0.01c0.42,0.03,0.86,0.16,1.18,0.44c0.08,0.06,0.15,0.14,0.2,0.22l-0.1,0.86
								C243.66,409.96,243.75,410.55,243.77,411.12z"/>
						</g>
					</g>
					<g>
						<g>
							<rect x="265.86" y="377.17" class="st9" width="1.15" height="5.36"/>
						</g>
						<g>
							<rect x="259.54" y="377.17" class="st9" width="1.15" height="5.36"/>
						</g>
						<g>
							<path class="st4" d="M271.03,412.32h-15.97c-1.83,0-3.33-1.5-3.33-3.33v-23.77c0-1.83,1.5-3.33,3.33-3.33h15.97
								c1.83,0,3.33,1.5,3.33,3.33v23.77C274.36,410.82,272.86,412.32,271.03,412.32z"/>
						</g>
						<g>
							<ellipse class="st5" cx="255.11" cy="411.98" rx="2.42" ry="2.43"/>
						</g>
						<g>
							<path class="st5" d="M273.06,411.47c0,1.34-1.08,2.43-2.42,2.43s-2.42-1.09-2.42-2.43c0-1.34,1.08-2.43,2.42-2.43
								S273.06,410.13,273.06,411.47z"/>
						</g>
						<g>
							<path class="st13" d="M268.46,378.09h-10.02c-0.5,0-0.92-0.41-0.92-0.92v0c0-0.5,0.41-0.92,0.92-0.92h10.02
								c0.5,0,0.92,0.41,0.92,0.92v0C269.38,377.67,268.96,378.09,268.46,378.09z"/>
						</g>
						<g>
							<path class="st9" d="M269.68,405.23l-3.71,2.54c-0.38,0.26-0.89,0.16-1.15-0.22l-1.67-2.46c-0.26-0.38-0.16-0.89,0.22-1.15
								l3.71-2.54c0.38-0.26,0.89-0.16,1.15,0.22l1.67,2.46C270.16,404.46,270.06,404.97,269.68,405.23z"/>
						</g>
						<g>
							<path class="st13" d="M264.81,401.32l-0.21-4.51c-0.02-0.46,0.33-0.84,0.79-0.86l2.96-0.14c0.46-0.02,0.84,0.33,0.86,0.79
								l0.21,4.51c0.02,0.46-0.33,0.84-0.79,0.86l-2.96,0.14C265.22,402.13,264.83,401.78,264.81,401.32z"/>
						</g>
						<g>
							<path class="st0" d="M266.17,400.22h-6.02c-0.02,0-0.03-0.01-0.03-0.03v-4.84c0-0.02,0.01-0.03,0.03-0.03h6.02
								c0.02,0,0.03,0.01,0.03,0.03v4.84C266.2,400.2,266.18,400.22,266.17,400.22z"/>
							<path class="st6" d="M266.17,400.53h-6.34l-0.03-0.35v-5.16l0.35-0.03h6.34l0.03,0.35v5.16L266.17,400.53z M260.44,399.9
								h5.44v-4.26h-5.44V399.9z"/>
						</g>
					</g>
				</g>
				<g>
					<ellipse class="st13" cx="255.11" cy="411.98" rx="1.08" ry="1.08"/>
					<path class="st7" d="M255.11,413.38c-0.77,0-1.4-0.63-1.4-1.4c0-0.77,0.63-1.4,1.4-1.4c0.77,0,1.4,0.63,1.4,1.4
						C256.51,412.75,255.88,413.38,255.11,413.38z M255.11,411.21c-0.42,0-0.76,0.34-0.76,0.77c0,0.42,0.34,0.77,0.76,0.77
						c0.42,0,0.76-0.34,0.76-0.77C255.87,411.55,255.53,411.21,255.11,411.21z"/>
				</g>
				<g>
					<path class="st13" d="M271.72,411.47c0,0.6-0.48,1.08-1.08,1.08s-1.08-0.49-1.08-1.08c0-0.6,0.48-1.08,1.08-1.08
						S271.72,410.87,271.72,411.47z"/>
					<path class="st7" d="M270.64,412.87c-0.77,0-1.4-0.63-1.4-1.4c0-0.77,0.63-1.4,1.4-1.4c0.77,0,1.4,0.63,1.4,1.4
						C272.04,412.24,271.41,412.87,270.64,412.87z M270.64,410.7c-0.42,0-0.76,0.34-0.76,0.77c0,0.42,0.34,0.77,0.76,0.77
						c0.42,0,0.76-0.34,0.76-0.77C271.4,411.05,271.06,410.7,270.64,410.7z"/>
				</g>
			</g>
			<g>
				<g>
					<path class="st13" d="M245.42,237.26c0,22.09-36.55,47.79-36.55,47.79s-36.55-23.53-36.55-47.79c0-18.51,16.36-36.5,36.55-36.5
						C229.05,200.76,245.42,218.75,245.42,237.26z"/>
					<path class="st0" d="M208.89,285.81l-0.36-0.23c-0.09-0.06-9.3-6.02-18.37-14.88c-8.42-8.22-18.47-20.69-18.47-33.45
						c0-19.78,17.38-37.14,37.18-37.14s37.18,17.35,37.18,37.14c0,9.34-6.21,20.31-18.46,32.63c-9.07,9.12-18.27,15.62-18.36,15.68
						L208.89,285.81z M208.87,201.39c-19.13,0-35.91,16.76-35.91,35.87c0,22.36,32.12,44.49,35.9,47.02
						c3.74-2.71,35.93-26.65,35.93-47.02C244.78,218.15,228,201.39,208.87,201.39z"/>
				</g>
				<g>
					<g>
						<path class="st0" d="M222.78,262.55h-9.07v-12.09h-9.67v12.09h-9.07v-31.51h9.07v11.39h9.67v-11.39h9.07V262.55z
							 M214.34,261.91h7.8v-30.24h-7.8v11.39H203.4v-11.39h-7.8v30.24h7.8v-12.09h10.94V261.91z"/>
					</g>
				</g>
				<g>
					<g>
						<polygon class="st0" points="193.7,223.95 190.72,224.33 189.34,227 188.06,224.27 185.1,223.78 187.3,221.72 186.85,218.73 
							189.48,220.19 192.16,218.84 191.59,221.8 						"/>
					</g>
					<g>
						<polygon class="st0" points="202.45,220.15 199.47,219.76 197.46,221.99 196.92,219.03 194.17,217.8 196.81,216.36 
							197.13,213.36 199.31,215.44 202.25,214.81 200.95,217.54 						"/>
					</g>
					<g>
						<polygon class="st0" points="211.18,220.23 208.59,218.72 205.87,220.01 206.5,217.06 204.44,214.87 207.43,214.56 
							208.87,211.91 210.08,214.67 213.03,215.23 210.8,217.24 						"/>
					</g>
					<g>
						<polygon class="st0" points="220.8,222.2 218.58,220.18 215.66,220.87 216.89,218.12 215.33,215.54 218.31,215.86 
							220.27,213.58 220.89,216.53 223.65,217.7 221.05,219.2 						"/>
					</g>
					<g>
						<polygon class="st0" points="228.09,226.7 226.71,224.02 223.73,223.64 225.85,221.5 225.29,218.53 227.97,219.89 
							230.6,218.44 230.14,221.42 232.33,223.49 229.37,223.97 						"/>
					</g>
				</g>
			</g>
		</g>
		<g>
			<path class="st11" d="M473.16,152.66c-1.23-6.62-7.57-10.97-14.16-9.73c-0.15,0.03-0.29,0.07-0.44,0.11
				c0.09-1.07,0.05-2.16-0.15-3.27c-1.23-6.62-7.57-10.97-14.16-9.73c-4.9,0.92-8.55,4.69-9.59,9.28c-0.33,0.04-0.66,0.09-0.99,0.15
				c-0.12,0.02-0.24,0.05-0.36,0.08c-2.79-6.61-9.87-10.63-17.18-9.25c-5.62,1.06-9.97,5.04-11.77,10.08
				c-3.5-4.04-8.98-6.17-14.61-5.11c-1.58-8.48-9.71-14.07-18.16-12.48c-2.89,0.55-5.45,1.86-7.49,3.7
				c-3.32-2.37-7.56-3.44-11.87-2.62c-8.44,1.59-14,9.76-12.42,18.24c0.12,0.62,0.27,1.22,0.45,1.8c-0.89-0.07-1.81-0.04-2.73,0.14
				c-5.62,1.06-9.32,6.49-8.27,12.14c1.05,5.65,6.46,9.37,12.08,8.31c1.04-0.2,2.01-0.54,2.9-1.01c2.61,3.96,7.41,6.17,12.35,5.24
				c0.55-0.1,1.08-0.26,1.6-0.43c3.45,4.55,9.27,7.03,15.25,5.91c1.81-0.34,3.48-0.98,4.98-1.87c1.35,5.25,6.53,8.63,11.92,7.61
				c0.26-0.05,0.52-0.12,0.78-0.19c-0.28,1.31-0.31,2.69-0.05,4.08c1.05,5.65,6.46,9.37,12.08,8.31c3.46-0.65,6.19-2.97,7.53-5.97
				c1.69,1.19,3.73,1.87,5.88,1.88c0,0.63,0.05,1.27,0.17,1.91c1.05,5.65,6.46,9.37,12.08,8.31c5.1-0.96,8.61-5.53,8.43-10.59
				c0.04-0.01,0.08-0.01,0.13-0.02c5.62-1.06,9.32-6.49,8.27-12.14c-0.46-2.48-1.77-4.59-3.56-6.08c3.98-1.52,7.07-4.58,8.72-8.35
				c2.52,4.3,7.52,6.77,12.67,5.8C470.05,165.64,474.39,159.27,473.16,152.66z"/>
		</g>
	</g>
</g>
<g id="DESIGNED_BY_FREEPIK">
	<g>
		<g id="XMLID_319_">
			<g id="XMLID_338_">
				<path id="XMLID_346_" class="st14" d="M260.1,457.61c-0.43,0.44-0.8,0.93-1.11,1.45l-0.47-0.24c-0.07-0.3-0.35-0.5-0.66-0.47
					c-0.33,0.04-0.57,0.34-0.53,0.67c0.04,0.33,0.34,0.57,0.67,0.53c0.07-0.01,0.13-0.03,0.18-0.05l0.45,0.23
					c-0.25,0.55-0.43,1.14-0.54,1.74l0.75,0.13c0.23-1.31,0.85-2.51,1.79-3.47L260.1,457.61z"/>
				<path id="XMLID_345_" class="st14" d="M265.59,455.3c-0.17,0-0.34,0.01-0.51,0.02l-0.07-0.63c0.19-0.15,0.3-0.39,0.27-0.64
					c-0.05-0.39-0.4-0.67-0.8-0.63c-0.39,0.05-0.67,0.4-0.63,0.8c0.03,0.25,0.19,0.46,0.4,0.56l0.07,0.62
					c-0.71,0.12-1.4,0.33-2.06,0.65l0.33,0.68c0.93-0.45,1.94-0.67,3-0.67c0.5,0,0.99,0.05,1.48,0.16l0.16-0.74
					C266.69,455.36,266.14,455.3,265.59,455.3z"/>
				<path id="XMLID_344_" class="st14" d="M272.19,457.85c0.33-0.04,0.57-0.34,0.53-0.67c-0.04-0.33-0.34-0.57-0.67-0.53
					c-0.31,0.04-0.54,0.3-0.53,0.61l-0.42,0.36c-0.42-0.43-0.89-0.81-1.41-1.14l-0.4,0.64c1.13,0.71,2.02,1.73,2.56,2.93l0.69-0.31
					c-0.25-0.55-0.57-1.07-0.94-1.55l0.4-0.35C272.06,457.86,272.13,457.86,272.19,457.85z"/>
				<path id="XMLID_343_" class="st14" d="M265.04,465.51c-0.39,0.02-0.77,0.03-1.16,0.03c-0.88,0-1.73-0.06-2.48-0.18
					c-0.39-0.06-0.85-0.15-1.27-0.29c1.05,1.86,3.07,3.13,5.39,3.13c2.86,0,5.26-1.92,5.95-4.5c-0.68,0.45-1.51,0.83-2.46,1.12
					C267.84,465.19,266.46,465.43,265.04,465.51z"/>
				<path id="XMLID_339_" class="st14" d="M265.59,456.82c-3.35,0-6.08,2.67-6.08,5.94c0,0.43,0.05,0.85,0.14,1.26
					c0.67,0.48,2.71,0.89,5.35,0.73c2.88-0.17,5.3-0.96,6.67-2.16c-0.01-0.19-0.02-0.39-0.05-0.58
					C271.24,459.05,268.65,456.82,265.59,456.82z M263.43,463.33c-1.02,0-1.85-0.83-1.85-1.85c0-1.02,0.83-1.85,1.85-1.85
					c1.02,0,1.85,0.83,1.85,1.85C265.28,462.5,264.45,463.33,263.43,463.33z M268.17,462.43c-0.75,0-1.36-0.61-1.36-1.36
					s0.61-1.36,1.36-1.36c0.75,0,1.36,0.61,1.36,1.36S268.92,462.43,268.17,462.43z"/>
			</g>
			<path id="XMLID_336_" class="st14" d="M281.6,458.69c-0.29-0.12-0.81-0.31-1.38-0.24c-0.55,0.07-0.84,0.34-0.84,1.01v0.87h2.23
				v1.72h-2.23v5.45h-1.93v-5.45h-1.34v-1.72h1.34v-0.89c0-1.68,0.9-2.78,2.57-2.78c0.64,0,1.16,0.12,1.59,0.31L281.6,458.69z"/>
			<path id="XMLID_334_" class="st14" d="M286.3,462.02c-0.18-0.03-0.36-0.05-0.53-0.05c-0.9,0-1.51,0.55-1.51,1.61v3.91h-1.93
				v-7.17h1.87v0.78c0.45-0.67,1.14-0.98,2.02-0.98c0.41,0,0.85,0.13,1.09,0.34L286.3,462.02z"/>
			<path id="XMLID_331_" class="st14" d="M293.97,463.9c0,0.22-0.01,0.49-0.04,0.65h-5.08c0.21,1.04,0.93,1.49,1.84,1.49
				c0.62,0,1.3-0.25,1.81-0.69l1.13,1.24c-0.81,0.75-1.85,1.09-3.06,1.09c-2.2,0-3.72-1.5-3.72-3.75c0-2.26,1.48-3.8,3.63-3.8
				C292.54,460.13,293.96,461.66,293.97,463.9z M288.85,463.23h3.18c-0.18-0.92-0.73-1.44-1.56-1.44
				C289.55,461.8,289.02,462.34,288.85,463.23z"/>
			<path id="XMLID_328_" class="st14" d="M301.62,463.9c0,0.22-0.01,0.49-0.04,0.65h-5.08c0.21,1.04,0.93,1.49,1.84,1.49
				c0.62,0,1.3-0.25,1.81-0.69l1.13,1.24c-0.81,0.75-1.85,1.09-3.06,1.09c-2.2,0-3.72-1.5-3.72-3.75c0-2.26,1.48-3.8,3.63-3.8
				C300.2,460.13,301.61,461.66,301.62,463.9z M296.5,463.23h3.18c-0.18-0.92-0.73-1.44-1.56-1.44
				C297.21,461.8,296.67,462.34,296.5,463.23z"/>
			<path id="XMLID_325_" class="st14" d="M309.96,463.9c0,2.15-1.49,3.77-3.47,3.77c-0.96,0-1.64-0.38-2.11-0.93v3.71h-1.92v-10.13
				h1.89v0.79c0.47-0.58,1.15-0.98,2.14-0.98C308.47,460.13,309.96,461.75,309.96,463.9z M304.29,463.9c0,1.13,0.75,1.98,1.84,1.98
				c1.14,0,1.85-0.88,1.85-1.98c0-1.1-0.71-1.98-1.85-1.98C305.03,461.93,304.29,462.77,304.29,463.9z"/>
			<path id="XMLID_322_" class="st14" d="M313.07,457.98c0,0.7-0.54,1.23-1.24,1.23c-0.7,0-1.23-0.53-1.23-1.23
				c0-0.7,0.53-1.24,1.23-1.24C312.53,456.73,313.07,457.28,313.07,457.98z M312.81,467.49h-1.93v-7.17h1.93V467.49z"/>
			<path id="XMLID_320_" class="st14" d="M316.03,462.88l2.7-2.55h2.37l-3.48,3.38l3.5,3.8h-2.38l-2.72-2.9v2.9h-1.93v-10.66h1.93
				V462.88z"/>
		</g>
		<g>
			<path class="st14" d="M184.41,467.43v-1.05c-0.53,0.72-1.39,1.23-2.39,1.23c-1.85,0-3.15-1.41-3.15-3.71
				c0-2.26,1.29-3.72,3.15-3.72c0.95,0,1.82,0.47,2.39,1.25v-3.76h1.1v9.77H184.41z M184.41,465.51v-3.21
				c-0.4-0.62-1.24-1.14-2.12-1.14c-1.42,0-2.27,1.17-2.27,2.74c0,1.57,0.85,2.72,2.27,2.72
				C183.17,466.62,184.02,466.13,184.41,465.51z"/>
			<path class="st14" d="M186.93,463.88c0-2.05,1.46-3.71,3.49-3.71c2.14,0,3.4,1.67,3.4,3.79v0.28h-5.73
				c0.09,1.33,1.03,2.45,2.55,2.45c0.81,0,1.63-0.32,2.18-0.89l0.53,0.72c-0.7,0.7-1.65,1.08-2.81,1.08
				C188.44,467.6,186.93,466.1,186.93,463.88z M190.4,461.09c-1.51,0-2.26,1.27-2.31,2.36h4.64
				C192.72,462.39,192.01,461.09,190.4,461.09z"/>
			<path class="st14" d="M194.61,466.49l0.57-0.79c0.47,0.54,1.36,1.01,2.33,1.01c1.08,0,1.67-0.51,1.67-1.22
				c0-1.71-4.38-0.66-4.38-3.28c0-1.1,0.95-2.04,2.64-2.04c1.2,0,2.05,0.45,2.62,1.03l-0.51,0.76c-0.42-0.51-1.2-0.89-2.11-0.89
				c-0.97,0-1.57,0.48-1.57,1.11c0,1.55,4.38,0.53,4.38,3.28c0,1.19-0.95,2.14-2.78,2.14C196.31,467.6,195.32,467.25,194.61,466.49z
				"/>
			<path class="st14" d="M201.48,458.61c0-0.41,0.34-0.75,0.73-0.75c0.41,0,0.75,0.34,0.75,0.75c0,0.41-0.34,0.73-0.75,0.73
				C201.81,459.34,201.48,459.02,201.48,458.61z M201.67,467.43v-7.07h1.1v7.07H201.67z"/>
			<path class="st14" d="M204.58,469.25l0.56-0.82c0.59,0.7,1.29,0.97,2.3,0.97c1.17,0,2.27-0.57,2.27-2.12v-1.01
				c-0.51,0.72-1.38,1.26-2.37,1.26c-1.85,0-3.15-1.38-3.15-3.66c0-2.27,1.29-3.68,3.15-3.68c0.95,0,1.8,0.47,2.37,1.25v-1.07h1.1
				v6.87c0,2.34-1.64,3.08-3.37,3.08C206.24,470.3,205.42,470.07,204.58,469.25z M209.71,465.39v-3.09
				c-0.38-0.62-1.23-1.14-2.11-1.14c-1.42,0-2.27,1.13-2.27,2.7c0,1.55,0.85,2.7,2.27,2.7
				C208.48,466.55,209.33,466.01,209.71,465.39z"/>
			<path class="st14" d="M217.41,467.43v-4.63c0-1.24-0.63-1.64-1.58-1.64c-0.86,0-1.68,0.53-2.09,1.1v5.17h-1.1v-7.07h1.1v1.03
				c0.5-0.59,1.46-1.2,2.52-1.2c1.48,0,2.26,0.75,2.26,2.29v4.97H217.41z"/>
			<path class="st14" d="M219.93,463.88c0-2.05,1.46-3.71,3.49-3.71c2.14,0,3.4,1.67,3.4,3.79v0.28h-5.73
				c0.09,1.33,1.03,2.45,2.55,2.45c0.81,0,1.63-0.32,2.18-0.89l0.53,0.72c-0.7,0.7-1.66,1.08-2.81,1.08
				C221.44,467.6,219.93,466.1,219.93,463.88z M223.4,461.09c-1.51,0-2.26,1.27-2.31,2.36h4.64
				C225.72,462.39,225.02,461.09,223.4,461.09z"/>
			<path class="st14" d="M233.35,467.43v-1.05c-0.53,0.72-1.39,1.23-2.39,1.23c-1.85,0-3.15-1.41-3.15-3.71
				c0-2.26,1.29-3.72,3.15-3.72c0.95,0,1.82,0.47,2.39,1.25v-3.76h1.1v9.77H233.35z M233.35,465.51v-3.21
				c-0.4-0.62-1.25-1.14-2.12-1.14c-1.42,0-2.27,1.17-2.27,2.74c0,1.57,0.85,2.72,2.27,2.72
				C232.1,466.62,232.95,466.13,233.35,465.51z"/>
			<path class="st14" d="M239.69,467.43v-9.77h1.1v3.76c0.57-0.78,1.42-1.25,2.39-1.25c1.85,0,3.15,1.46,3.15,3.72
				c0,2.3-1.3,3.71-3.15,3.71c-1,0-1.86-0.51-2.39-1.23v1.05H239.69z M242.9,466.62c1.44,0,2.29-1.16,2.29-2.72
				c0-1.57-0.85-2.74-2.29-2.74c-0.86,0-1.73,0.53-2.11,1.14v3.21C241.17,466.13,242.04,466.62,242.9,466.62z"/>
			<path class="st14" d="M247.53,469.2c0.16,0.07,0.43,0.12,0.6,0.12c0.48,0,0.81-0.16,1.05-0.75l0.47-1.07l-2.96-7.15h1.19
				l2.36,5.8l2.34-5.8h1.2l-3.54,8.51c-0.42,1.03-1.14,1.42-2.08,1.44c-0.23,0-0.6-0.04-0.81-0.1L247.53,469.2z"/>
		</g>
	</g>
</g>
</svg>
