<svg xmlns="http://www.w3.org/2000/svg" viewBox="0 0 500 500"><defs><style>.cls-1{fill:#c9dde8;}.cls-2{fill:#b5ccd6;}.cls-3{fill:#edf3f5;}.cls-12,.cls-4{fill:none;stroke:#8e6a8f;stroke-miterlimit:10;}.cls-4{stroke-width:2.95px;}.cls-5{fill:#ece4da;}.cls-6,.cls-7{fill:#3e2d63;}.cls-7{writing-mode:tb;text-orientation:upright;glyph-orientation-vertical:0deg;font-size:15.43px;font-family:Montserrat-ExtraBold, Montserrat ExtraBold;font-weight:800;letter-spacing:0.14em;}.cls-8{fill:#c4dbf0;}.cls-9{fill:#def0fd;}.cls-10{fill:#dfd5c8;}.cls-11{fill:#8e6a8f;}.cls-12{stroke-width:2.84px;}.cls-13{fill:#222221;}</style></defs><title>2387782</title><g id="BACKGROUND"><rect class="cls-1" width="500" height="500"/></g><g id="OBJECTS"><circle class="cls-2" cx="355.45" cy="119.13" r="54.18" transform="translate(19.64 286.23) rotate(-45)"/><path class="cls-3" d="M371.55,144.62s-1.08-10,12.92-8.88c0,0,2.93-9.52,13.26-10.77,11.65-1.41,15.54,7.06,16.88,8.94,0,0,18.63-4.63,20.78,10.71Z" transform="translate(-0.24)"/><path class="cls-3" d="M53.87,199.81s.76-14.1,16-9.69c0,0,5.86-9.55,16.81-6.79a13.46,13.46,0,0,1,8.6,6.37,13.22,13.22,0,0,1,1,10.11Z" transform="translate(-0.24)"/><rect class="cls-2" x="138.24" y="295.07" width="55.84" height="114.66"/><rect class="cls-2" x="67.17" y="298.84" width="47.76" height="110.89"/><rect class="cls-2" x="62.16" y="298.84" width="46.82" height="6.38"/><rect class="cls-2" x="92.35" y="237.49" width="55.84" height="172.24"/><rect class="cls-2" x="161.39" y="259.89" width="42.97" height="149.84"/><polygon class="cls-2" points="429.8 265.95 378.81 265.95 378.81 274.17 383.33 274.17 383.33 285.26 368.37 285.26 368.37 214.47 331.95 214.47 331.95 410.68 424.64 410.68 424.64 274.17 429.8 274.17 429.8 265.95"/><line class="cls-4" x1="140.92" y1="193.71" x2="158.6" y2="193.71"/><line class="cls-4" x1="140.92" y1="266.84" x2="158.6" y2="266.84"/><line class="cls-4" x1="140.92" y1="228.55" x2="158.6" y2="228.55"/><rect class="cls-5" x="118.82" y="173.43" width="28.12" height="114.35"/><path class="cls-6" d="M148.61,289.21h-31V172h31Zm-28.12-2.85h25.26V174.86H120.49Z" transform="translate(-0.24)"/><text class="cls-7" transform="translate(132.88 187.31)">HOTEL</text><rect class="cls-5" x="188.65" y="118.58" width="120.48" height="19.48"/><circle class="cls-5" cx="249.12" cy="139.52" r="52.41" transform="matrix(0.86, -0.52, 0.52, 0.86, -36.5, 148.82)"/><path class="cls-8" d="M216.07,117.81S226.61,96.62,249,96.62s33.22,21.19,33.22,21.19Z" transform="translate(-0.24)"/><polygon class="cls-9" points="241.37 117.81 236.79 116.83 249.78 95.79 254.45 96.62 241.37 117.81"/><polygon class="cls-9" points="246.87 118.58 244.37 117.04 256.9 97.07 259.4 98.61 246.87 118.58"/><path class="cls-6" d="M284.55,119.27H213.73l1-2.11c.11-.22,11.2-22,34.18-22s34.05,21.09,34.51,22Zm-66-2.91h61C276.19,111.13,266,98.07,249,98.07S221.9,111.15,218.6,116.36Z" transform="translate(-0.24)"/><rect class="cls-6" x="247.26" y="96.62" width="2.91" height="21.19"/><rect class="cls-5" x="158.6" y="129.85" width="180.57" height="279.52"/><rect class="cls-6" x="158.6" y="133.34" width="180.57" height="9.44"/><rect class="cls-6" x="158.6" y="124.82" width="180.57" height="5.03"/><rect class="cls-10" x="158.6" y="233.71" width="180.57" height="3.81"/><rect class="cls-10" x="158.6" y="317.94" width="180.57" height="3.81"/><rect class="cls-8" x="289.82" y="164.17" width="23.66" height="48.74"/><polygon class="cls-9" points="291.69 200.28 289.6 195.29 309.52 163.01 313.27 165.33 291.69 200.28"/><rect class="cls-9" x="279.48" y="190.21" width="44.54" height="2.94" transform="matrix(0.53, -0.85, 0.85, 0.53, -20.14, 347.67)"/><rect class="cls-11" x="284.63" y="214.39" width="33.53" height="5.77"/><rect class="cls-10" x="284.63" y="220.15" width="33.53" height="3.7"/><path class="cls-6" d="M315.17,214.37H288.6V162.72h26.57Zm-23.66-2.91h20.75V165.63H291.51Z" transform="translate(-0.24)"/><rect class="cls-6" x="289.82" y="187.09" width="23.66" height="2.91"/><rect class="cls-8" x="237.13" y="164.17" width="23.66" height="48.74"/><polygon class="cls-9" points="239.01 200.28 236.91 195.29 256.83 163.01 260.58 165.33 239.01 200.28"/><rect class="cls-9" x="226.8" y="190.21" width="44.54" height="2.94" transform="translate(-45.13 302.85) rotate(-58.3)"/><rect class="cls-11" x="231.95" y="214.39" width="33.53" height="5.77"/><rect class="cls-10" x="231.95" y="220.15" width="33.53" height="3.7"/><path class="cls-6" d="M262.49,214.37H235.91V162.72h26.58Zm-23.66-2.91h20.75V165.63H238.83Z" transform="translate(-0.24)"/><rect class="cls-6" x="237.13" y="187.09" width="23.66" height="2.91"/><rect class="cls-8" x="184.45" y="164.17" width="23.66" height="48.74"/><polygon class="cls-9" points="186.32 200.28 184.22 195.29 204.15 163.01 207.9 165.33 186.32 200.28"/><rect class="cls-9" x="174.11" y="190.21" width="44.54" height="2.94" transform="matrix(0.53, -0.85, 0.85, 0.53, -70.13, 258.03)"/><rect class="cls-11" x="179.26" y="214.39" width="33.53" height="5.77"/><rect class="cls-10" x="179.26" y="220.15" width="33.53" height="3.7"/><path class="cls-6" d="M209.8,214.37H183.23V162.72H209.8Zm-23.66-2.91h20.75V165.63H186.14Z" transform="translate(-0.24)"/><rect class="cls-6" x="184.45" y="187.09" width="23.66" height="2.91"/><rect class="cls-8" x="289.82" y="249.17" width="23.66" height="48.74"/><polygon class="cls-9" points="291.69 285.28 289.6 280.28 309.52 248.01 313.27 250.33 291.69 285.28"/><rect class="cls-9" x="279.48" y="275.2" width="44.54" height="2.94" transform="translate(-92.45 388.01) rotate(-58.3)"/><rect class="cls-11" x="284.63" y="299.38" width="33.53" height="5.77"/><rect class="cls-10" x="284.63" y="305.15" width="33.53" height="3.7"/><path class="cls-6" d="M315.17,299.37H288.6V247.71h26.57Zm-23.66-2.91h20.75V250.63H291.51Z" transform="translate(-0.24)"/><rect class="cls-6" x="289.82" y="272.09" width="23.66" height="2.91"/><rect class="cls-8" x="237.13" y="249.17" width="23.66" height="48.74"/><polygon class="cls-9" points="239.01 285.28 236.91 280.28 256.83 248.01 260.58 250.33 239.01 285.28"/><rect class="cls-9" x="226.8" y="275.2" width="44.54" height="2.94" transform="translate(-117.45 343.2) rotate(-58.3)"/><rect class="cls-11" x="231.95" y="299.38" width="33.53" height="5.77"/><rect class="cls-10" x="231.95" y="305.15" width="33.53" height="3.7"/><path class="cls-6" d="M262.49,299.37H235.91V247.71h26.58Zm-23.66-2.91h20.75V250.63H238.83Z" transform="translate(-0.24)"/><rect class="cls-6" x="237.13" y="272.09" width="23.66" height="2.91"/><rect class="cls-8" x="184.45" y="249.17" width="23.66" height="48.74"/><polygon class="cls-9" points="186.32 285.28 184.22 280.28 204.15 248.01 207.9 250.33 186.32 285.28"/><rect class="cls-9" x="174.11" y="275.2" width="44.54" height="2.94" transform="translate(-142.45 298.36) rotate(-58.3)"/><rect class="cls-11" x="179.26" y="299.38" width="33.53" height="5.77"/><rect class="cls-10" x="179.26" y="305.15" width="33.53" height="3.7"/><path class="cls-6" d="M209.8,299.37H183.23V247.71H209.8Zm-23.66-2.91h20.75V250.63H186.14Z" transform="translate(-0.24)"/><rect class="cls-6" x="184.45" y="272.09" width="23.66" height="2.91"/><rect class="cls-11" x="196.23" y="338.45" width="104.99" height="70.92"/><circle class="cls-11" cx="248.96" cy="344.12" r="19.68" transform="translate(-143.72 506.57) rotate(-76.6)"/><rect class="cls-6" x="205.18" y="347.1" width="87.08" height="62.27"/><line class="cls-12" x1="248.72" y1="346.15" x2="248.72" y2="407.96"/><polygon class="cls-5" points="248.72 329.68 250.31 333.48 254.42 333.82 251.29 336.5 252.25 340.52 248.72 338.37 245.2 340.52 246.15 336.5 243.02 333.82 247.13 333.48 248.72 329.68"/><path class="cls-11" d="M241.92,376.62a2.17,2.17,0,1,1-2.17-2.17A2.17,2.17,0,0,1,241.92,376.62Z" transform="translate(-0.24)"/><path class="cls-11" d="M260.34,376.62a2.17,2.17,0,1,1-2.17-2.17A2.17,2.17,0,0,1,260.34,376.62Z" transform="translate(-0.24)"/><path class="cls-5" d="M403.84,344.1a26.27,26.27,0,0,0-4.93-15.42,7.15,7.15,0,0,1-1.28-5.09,24.33,24.33,0,0,0,.18-3c0-11.66-8.07-21.12-18-21.12s-18,9.46-18,21.12a24.33,24.33,0,0,0,.18,3,7.15,7.15,0,0,1-1.28,5.09,26.57,26.57,0,0,0-.29,30.42,8.21,8.21,0,0,1,1.43,5.18c0,.5,0,1,0,1.49,0,11.67,8.07,21.12,18,21.12s18-9.45,18-21.12c0-.5,0-1,0-1.49a8.21,8.21,0,0,1,1.43-5.18A26.29,26.29,0,0,0,403.84,344.1Z" transform="translate(-0.24)"/><rect class="cls-6" x="377.54" y="320.99" width="2" height="87.66"/><rect class="cls-6" x="373.66" y="331.22" width="1.99" height="12.57" transform="translate(-129.75 328.07) rotate(-40.94)"/><rect class="cls-6" x="376.66" y="352.63" width="14.5" height="1.99" transform="translate(-137.86 374.7) rotate(-44.96)"/><path class="cls-5" d="M142.22,344.1a26.27,26.27,0,0,0-4.93-15.42,7.15,7.15,0,0,1-1.28-5.09,24.33,24.33,0,0,0,.18-3c0-11.66-8.07-21.12-18-21.12s-18,9.46-18,21.12a24.32,24.32,0,0,0,.19,3A7.15,7.15,0,0,1,99,328.68a26.6,26.6,0,0,0-.3,30.42,8.15,8.15,0,0,1,1.44,5.18c0,.5-.05,1-.05,1.49,0,11.67,8.08,21.12,18,21.12s18-9.45,18-21.12c0-.5,0-1,0-1.49a8.15,8.15,0,0,1,1.43-5.18A26.29,26.29,0,0,0,142.22,344.1Z" transform="translate(-0.24)"/><rect class="cls-6" x="115.92" y="320.99" width="2" height="87.66"/><rect class="cls-6" x="112.04" y="331.22" width="1.99" height="12.57" transform="translate(-193.75 156.63) rotate(-40.94)"/><rect class="cls-6" x="115.03" y="352.63" width="14.5" height="1.99" transform="translate(-214.37 189.84) rotate(-44.97)"/><rect class="cls-6" x="41.15" y="407.96" width="410.77" height="2.82"/></g><g id="DESIGNED_BY_FREEPIK" data-name="DESIGNED BY FREEPIK"><path class="cls-13" d="M260.1,465.47a7.3,7.3,0,0,0-1.1,1.45l-.47-.24a.6.6,0,1,0-.52.73l.19-.05.45.23a7.1,7.1,0,0,0-.54,1.75l.74.13a6.58,6.58,0,0,1,1.8-3.48Z" transform="translate(-0.24)"/><path class="cls-13" d="M265.59,463.16l-.51,0-.07-.63a.69.69,0,0,0,.26-.64.72.72,0,1,0-1.42.17.71.71,0,0,0,.41.56l.07.62a8,8,0,0,0-2.06.65l.33.68a7,7,0,0,1,3-.67,6.71,6.71,0,0,1,1.48.16l.16-.74A7.56,7.56,0,0,0,265.59,463.16Z" transform="translate(-0.24)"/><path class="cls-13" d="M272.19,465.71a.6.6,0,0,0,.53-.67.6.6,0,0,0-1.2.08l-.42.36a7.36,7.36,0,0,0-1.41-1.13l-.4.64a6.7,6.7,0,0,1,2.56,2.92l.69-.31a7.46,7.46,0,0,0-.94-1.55l.4-.35A.41.41,0,0,0,272.19,465.71Z" transform="translate(-0.24)"/><path class="cls-13" d="M265,473.37c-.38,0-.77,0-1.15,0a15.87,15.87,0,0,1-2.48-.18,9.19,9.19,0,0,1-1.27-.29,6.2,6.2,0,0,0,11.34-1.38,10,10,0,0,1-2.46,1.12A16.69,16.69,0,0,1,265,473.37Z" transform="translate(-0.24)"/><path class="cls-13" d="M265.59,464.68a6,6,0,0,0-6.08,5.94,5.86,5.86,0,0,0,.14,1.26c.67.49,2.71.89,5.35.74a11.55,11.55,0,0,0,6.67-2.16,5.44,5.44,0,0,0-.05-.58A6,6,0,0,0,265.59,464.68Zm-2.16,6.51a1.85,1.85,0,1,1,1.85-1.85A1.85,1.85,0,0,1,263.43,471.19Zm4.74-.9a1.36,1.36,0,1,1,1.36-1.36A1.36,1.36,0,0,1,268.17,470.29Z" transform="translate(-0.24)"/><path class="cls-13" d="M281.6,466.55a2.82,2.82,0,0,0-1.39-.24c-.55.07-.84.34-.84,1v.86h2.23v1.72h-2.23v5.45h-1.93V469.9H276.1v-1.72h1.34v-.89a2.46,2.46,0,0,1,2.57-2.78,3.91,3.91,0,0,1,1.59.31Z" transform="translate(-0.24)"/><path class="cls-13" d="M286.3,469.88a3.27,3.27,0,0,0-.53-.05,1.44,1.44,0,0,0-1.51,1.62v3.9h-1.93v-7.17h1.87V469a2.25,2.25,0,0,1,2-1,1.8,1.8,0,0,1,1.1.34Z" transform="translate(-0.24)"/><path class="cls-13" d="M294,471.76a6,6,0,0,1,0,.65h-5.09a1.75,1.75,0,0,0,1.85,1.49,2.94,2.94,0,0,0,1.81-.69l1.13,1.24a4.33,4.33,0,0,1-3.05,1.09,3.78,3.78,0,0,1-.1-7.55A3.47,3.47,0,0,1,294,471.76Zm-5.12-.67H292a1.6,1.6,0,0,0-3.18,0Z" transform="translate(-0.24)"/><path class="cls-13" d="M301.62,471.76a6,6,0,0,1,0,.65H296.5a1.73,1.73,0,0,0,1.84,1.49,2.94,2.94,0,0,0,1.81-.69l1.14,1.24a4.35,4.35,0,0,1-3.06,1.09,3.78,3.78,0,0,1-.1-7.55A3.47,3.47,0,0,1,301.62,471.76Zm-5.12-.67h3.18a1.55,1.55,0,0,0-1.56-1.44A1.57,1.57,0,0,0,296.5,471.09Z" transform="translate(-0.24)"/><path class="cls-13" d="M310,471.76a3.55,3.55,0,0,1-3.47,3.78,2.65,2.65,0,0,1-2.11-.93v3.7h-1.92V468.18h1.89V469a2.6,2.6,0,0,1,2.14-1A3.55,3.55,0,0,1,310,471.76Zm-5.67,0a1.85,1.85,0,1,0,1.84-2A1.84,1.84,0,0,0,304.29,471.76Z" transform="translate(-0.24)"/><path class="cls-13" d="M313.07,465.84a1.24,1.24,0,0,1-2.47,0,1.24,1.24,0,1,1,2.47,0Zm-.26,9.51h-1.93v-7.17h1.93Z" transform="translate(-0.24)"/><path class="cls-13" d="M316,470.74l2.7-2.56h2.37l-3.48,3.38,3.5,3.79h-2.37l-2.72-2.9v2.9H314.1V464.7H316Z" transform="translate(-0.24)"/><path class="cls-13" d="M184.41,475.29v-1.06a3,3,0,0,1-2.39,1.23c-1.84,0-3.14-1.4-3.14-3.7S180.16,468,182,468a3,3,0,0,1,2.39,1.24v-3.76h1.1v9.77Zm0-1.92v-3.21a2.65,2.65,0,0,0-2.12-1.14c-1.42,0-2.27,1.17-2.27,2.74s.85,2.72,2.27,2.72A2.6,2.6,0,0,0,184.41,473.37Z" transform="translate(-0.24)"/><path class="cls-13" d="M186.93,471.74a3.54,3.54,0,0,1,3.49-3.7c2.14,0,3.4,1.67,3.4,3.79v.28h-5.73a2.5,2.5,0,0,0,2.55,2.45,3.11,3.11,0,0,0,2.18-.9l.53.72a3.87,3.87,0,0,1-2.81,1.08A3.51,3.51,0,0,1,186.93,471.74ZM190.4,469a2.35,2.35,0,0,0-2.31,2.35h4.64A2.29,2.29,0,0,0,190.4,469Z" transform="translate(-0.24)"/><path class="cls-13" d="M194.61,474.35l.57-.79a3.21,3.21,0,0,0,2.33,1c1.08,0,1.67-.51,1.67-1.21,0-1.72-4.38-.66-4.38-3.29,0-1.09.95-2,2.63-2a3.6,3.6,0,0,1,2.63,1l-.52.77a2.73,2.73,0,0,0-2.11-.9c-1,0-1.56.49-1.56,1.12,0,1.55,4.38.52,4.38,3.28,0,1.18-1,2.13-2.79,2.13A3.75,3.75,0,0,1,194.61,474.35Z" transform="translate(-0.24)"/><path class="cls-13" d="M201.48,466.47a.74.74,0,0,1,.73-.75.76.76,0,0,1,.75.75.74.74,0,0,1-.75.73A.73.73,0,0,1,201.48,466.47Zm.19,8.82v-7.08h1.1v7.08Z" transform="translate(-0.24)"/><path class="cls-13" d="M204.58,477.11l.56-.83a2.68,2.68,0,0,0,2.3,1,2,2,0,0,0,2.27-2.12v-1a3,3,0,0,1-2.37,1.26c-1.85,0-3.15-1.38-3.15-3.67s1.29-3.67,3.15-3.67a2.94,2.94,0,0,1,2.37,1.24v-1.07h1.1v6.87c0,2.35-1.64,3.08-3.37,3.08A3.63,3.63,0,0,1,204.58,477.11Zm5.13-3.86v-3.09A2.62,2.62,0,0,0,207.6,469c-1.42,0-2.27,1.13-2.27,2.69s.85,2.7,2.27,2.7A2.61,2.61,0,0,0,209.71,473.25Z" transform="translate(-0.24)"/><path class="cls-13" d="M217.41,475.29v-4.63c0-1.24-.63-1.64-1.58-1.64a2.73,2.73,0,0,0-2.09,1.1v5.17h-1.1v-7.08h1.1v1a3.47,3.47,0,0,1,2.52-1.2,2,2,0,0,1,2.25,2.28v5Z" transform="translate(-0.24)"/><path class="cls-13" d="M219.93,471.74a3.54,3.54,0,0,1,3.49-3.7c2.14,0,3.4,1.67,3.4,3.79v.28h-5.73a2.5,2.5,0,0,0,2.55,2.45,3.11,3.11,0,0,0,2.18-.9l.53.72a3.85,3.85,0,0,1-2.81,1.08A3.51,3.51,0,0,1,219.93,471.74ZM223.4,469a2.36,2.36,0,0,0-2.31,2.35h4.64A2.28,2.28,0,0,0,223.4,469Z" transform="translate(-0.24)"/><path class="cls-13" d="M233.35,475.29v-1.06a3,3,0,0,1-2.39,1.23c-1.84,0-3.15-1.4-3.15-3.7S229.1,468,231,468a3,3,0,0,1,2.39,1.24v-3.76h1.1v9.77Zm0-1.92v-3.21a2.68,2.68,0,0,0-2.12-1.14c-1.42,0-2.27,1.17-2.27,2.74s.85,2.72,2.27,2.72A2.63,2.63,0,0,0,233.35,473.37Z" transform="translate(-0.24)"/><path class="cls-13" d="M239.69,475.29v-9.77h1.1v3.76a3,3,0,0,1,2.39-1.24c1.84,0,3.15,1.46,3.15,3.72s-1.31,3.7-3.15,3.7a3,3,0,0,1-2.39-1.23v1.06Zm3.21-.81c1.44,0,2.29-1.15,2.29-2.72s-.85-2.74-2.29-2.74a2.65,2.65,0,0,0-2.11,1.14v3.21A2.59,2.59,0,0,0,242.9,474.48Z" transform="translate(-0.24)"/><path class="cls-13" d="M247.53,477.06a1.73,1.73,0,0,0,.6.12,1,1,0,0,0,1.05-.75l.47-1.07-3-7.15h1.19l2.36,5.8,2.34-5.8h1.2l-3.54,8.51a2.1,2.1,0,0,1-2.08,1.44,3.52,3.52,0,0,1-.81-.1Z" transform="translate(-0.24)"/></g></svg>